<?xml version="1.0" standalone="no"?>
<!DOCTYPE svg PUBLIC "-//W3C//DTD SVG 1.1//EN" "http://www.w3.org/Graphics/SVG/1.1/DTD/svg11.dtd" >
<svg xmlns="http://www.w3.org/2000/svg">
<metadata>Generated by IcoMoon</metadata>
<defs>
<font id="iconfont" horiz-adv-x="512">
<font-face units-per-em="512" ascent="506.88" descent="-5.12" />
<missing-glyph horiz-adv-x="512" />
<glyph unicode="&#x20;" d="" horiz-adv-x="5.12" />
<glyph unicode="&#xe600;" d="M450.757 376h-349.517c-27.078 0-38.28 12.659-42.639 20.241l377.4 39.759v14.76c0 24.978-20.267 45.24-45.243 45.24l-329.512-61.281c-27.45-4.959-45.245-20.258-45.245-45.236v-328.238c0-24.978 20.267-45.243 45.245-45.243h389.541c24.952 0 45.219 20.267 45.219 45.243v269.517c-0.005 24.978-20.272 45.24-45.248 45.24zM416.002 155.998c-22.101 0-40.002 17.906-40.002 40.002s17.901 40.002 40.002 40.002c22.098 0 39.994-17.906 39.994-40.002s-17.897-40.002-39.994-40.002z" />
<glyph unicode="&#xe601;" d="M105.45 217.656h315.726v-23.721h-315.726v23.721zM105.45 264.208h315.726v-23.721h-315.726v23.721zM105.45 316.216h315.726v-23.721h-315.726v23.721zM160.22 366.399h208.034v-23.721h-208.034v23.721zM625.157 166.293c0-36.325-29.448-65.774-65.774-65.774s-65.774 29.448-65.774 65.774c0 36.325 29.448 65.774 65.774 65.774s65.774-29.448 65.774-65.774zM655.605 143.397l-96.199-76.019 53.301-67.377 25.347 66.754 70.808 9.243zM390.216 113.038l66.754-25.347 9.266-70.829 67.355 53.3-75.997 96.154zM364.156 93.726h-318.933v389.072h448.966v-142.55h147.851v-148.363l29.223-27.017v204.56l-147.851 142.572h-507.411v-447.474l405.288 0.467-0.245 15.792-56.887 12.942zM523.412 467.832l102.034-98.404h-102.034v98.404z" horiz-adv-x="709" />
<glyph unicode="&#xe602;" d="M243.208 449.391v0.017c-0.066 0-0.131 0-0.197-0.017-0.066 0-0.131 0.017-0.197 0.017v-0.017c-84.883-1.036-153.666-70.363-153.666-155.493 0-85.147 68.782-154.44 153.666-155.493v-0.017c0.066 0 0.131 0 0.197 0.017 0.066 0 0.131-0.017 0.197-0.017v0.017c84.883 1.036 153.666 70.33 153.666 155.493 0 85.114-68.765 154.44-153.666 155.493zM425.471 163.231c4.478 6.503 7.507 13.385 8.808 19.953 1.399 6.931 1.036 13.45-0.806 19.015l-0.033 0.033c-0.033 0.115-0.066 0.247-0.099 0.362-0.099 0.214-0.197 0.445-0.231 0.675l-0.033 0.082c-2.404 6.849-2.7 15.31-0.839 24.053l-0.082 0.050c0.346 1.465 0.709 2.93 1.185 4.428 1.334 3.984 3.029 7.688 4.988 11.047 7.442 10.487 28.86 19.541 28.86 52.286 0 34.276-27.625 43.561-32.827 58.476-0.132 0.329-0.296 0.51-0.428 0.807-0.28 0.724-0.577 1.416-0.807 2.156-3.309 10.454-3.589 20.825-0.856 29.008l0.197 0.559c1.795 5.285 2.239 11.623 1.087 18.357h-0.017v0.033c-0.149 0.856-0.346 1.712-0.527 2.585l-0.033 0.28c-0.197 0.774-0.395 1.565-0.625 2.338l-0.181 0.592c-0.181 0.659-0.411 1.35-0.659 2.009l-0.313 0.889-0.642 1.63-0.51 1.284-0.494 1.054c-0.28 0.609-0.543 1.185-0.839 1.778l-0.147 0.28c-1.366 2.634-2.93 5.234-4.775 7.738l-0.329 0.445-0.181 0.247c-4.988 6.766-10.947 12.018-17.122 15.459-6.156 3.474-12.495 5.137-18.324 5.087h-0.050c-0.149 0-0.264 0-0.378 0.017-0.231-0.017-0.461-0.033-0.724-0.017h-0.099c-7.228-0.198-15.393 2.156-23.13 6.634l-0.050-0.066c-1.267 0.774-2.568 1.613-3.82 2.519-8.841 6.519-15.113 14.767-17.681 22.983l-0.197 0.592c-1.647 5.317-5.005 10.685-9.895 15.459l-0.017 0.017c-0.625 0.625-1.284 1.234-1.959 1.794l-0.231 0.214c-0.609 0.511-1.219 1.038-1.861 1.531l-0.478 0.379-1.728 1.267-0.774 0.527-1.481 0.971-1.152 0.709-1.036 0.576c-0.577 0.346-1.152 0.642-1.728 0.938l-0.28 0.147c-2.634 1.334-5.433 2.519-8.397 3.474l-0.527 0.165-0.313 0.114c-8.017 2.502-15.935 3.243-22.95 2.42-7.029-0.839-13.137-3.194-17.813-6.7l-0.050-0.017c-0.099-0.099-0.214-0.165-0.329-0.231-0.164-0.181-0.345-0.313-0.575-0.428l-0.050-0.050c-5.762-4.445-13.73-7.31-22.637-8.264v-0.082c-0.807-0.083-1.63-0.099-2.435-0.115-0.823 0.017-1.647 0.017-2.437 0.115v0.082c-8.906 0.955-16.874 3.82-22.637 8.264l-0.049 0.050c-0.214 0.131-0.411 0.263-0.577 0.444-0.114 0.066-0.231 0.132-0.329 0.231l-0.049 0.017c-4.675 3.507-10.784 5.861-17.813 6.701-7.013 0.823-14.916 0.082-22.95-2.421l-0.313-0.115-0.527-0.181c-2.964-0.955-5.762-2.139-8.395-3.474l-0.28-0.148c-0.576-0.296-1.153-0.592-1.728-0.938l-1.020-0.575-1.153-0.709-1.482-0.971-0.774-0.527-1.712-1.234-0.494-0.395c-0.642-0.494-1.251-1.004-1.861-1.515l-0.231-0.214c-0.675-0.56-1.333-1.169-1.959-1.794l-0.017-0.017c-4.889-4.774-8.248-10.141-9.895-15.459l-0.181-0.609c-2.568-8.215-8.84-16.48-17.681-22.983-1.267-0.922-2.568-1.762-3.835-2.536l-0.049 0.066c-7.737-4.478-15.903-6.832-23.13-6.634h-0.099c-0.263-0.017-0.494 0-0.725 0.017-0.132-0.017-0.231-0.017-0.379-0.017h-0.049c-5.844 0.049-12.166-1.613-18.323-5.087-6.174-3.441-12.133-8.692-17.121-15.459l-0.181-0.247-0.33-0.445c-1.845-2.486-3.408-5.103-4.774-7.738l-0.148-0.28c-0.28-0.593-0.559-1.169-0.823-1.778l-0.494-1.053-0.527-1.285-0.642-1.63-0.297-0.889c-0.247-0.659-0.477-1.35-0.658-2.009l-0.181-0.592c-0.23-0.774-0.444-1.565-0.626-2.338l-0.050-0.28c-0.197-0.872-0.395-1.744-0.544-2.584v-0.033c-1.153-6.75-0.708-13.072 1.087-18.373l0.197-0.559c2.733-8.182 2.453-18.554-0.856-29.008-0.23-0.724-0.527-1.416-0.807-2.139-0.148-0.296-0.313-0.494-0.428-0.807-5.203-14.916-32.828-24.2-32.828-58.476 0-32.745 21.419-41.8 28.859-52.286 1.959-3.358 3.655-7.063 4.989-11.047 0.477-1.498 0.856-2.964 1.185-4.428l-0.083-0.050c1.861-8.742 1.581-17.204-0.84-24.053l-0.033-0.082c-0.033-0.231-0.132-0.461-0.23-0.675-0.033-0.132-0.066-0.264-0.099-0.362l-0.033-0.033c-1.844-5.565-2.206-12.084-0.807-19.015 1.3-6.569 4.33-13.45 8.807-19.953l-60.568-113.463h64.601l32.811-49.768 55.826 91.93c0.445-0.445 0.741-0.971 1.219-1.416 5.202-4.758 12.051-8.808 20.052-11.425 2.964-0.971 5.927-1.663 8.84-2.123l0.297-0.050c0.675-0.099 1.317-0.164 1.942-0.247l1.219-0.149 1.35-0.115 1.744-0.115h3.672c0.806 0.050 1.63 0.082 2.404 0.164l0.297 0.017c0.905 0.082 1.778 0.214 2.667 0.329h0.017c6.767 1.005 12.627 3.375 17.089 6.717l0.477 0.346c6.601 4.923 16.067 7.82 26.489 8.132 10.438-0.313 19.888-3.211 26.489-8.132l0.478-0.346c4.462-3.342 10.322-5.729 17.089-6.717h0.017c0.889-0.115 1.762-0.247 2.667-0.329l0.296-0.017c0.79-0.082 1.613-0.115 2.404-0.164h3.671l1.745 0.115 1.35 0.115 1.219 0.149c0.625 0.082 1.267 0.149 1.942 0.247l0.296 0.050c2.914 0.461 5.877 1.152 8.841 2.123 7.985 2.618 14.833 6.668 20.053 11.425 0.478 0.445 0.774 0.971 1.219 1.416l55.826-91.93 32.811 49.752h64.601l-60.551 113.479zM402.817 246.402c-1.811-6.125-3.935-12.117-6.454-18.027-8.478-20.053-20.611-38.063-36.070-53.522-15.442-15.442-33.437-27.592-53.488-36.054-20.233-8.544-41.668-12.923-63.778-13.154-22.11 0.231-43.561 4.61-63.778 13.154-20.052 8.478-38.046 20.611-53.489 36.054-15.459 15.459-27.609 33.469-36.070 53.522-2.502 5.894-4.626 11.903-6.454 18.027-2.008 7.342-6.783 26.95-6.783 47.496 0 26.028 6.783 47.496 6.783 47.496 1.811 6.108 3.934 12.117 6.454 18.043 8.478 20.036 20.612 38.029 36.071 53.488 15.442 15.442 33.436 27.592 53.488 36.071 20.233 8.544 41.667 12.923 63.778 13.137 22.11-0.214 43.561-4.593 63.778-13.138 20.053-8.478 38.046-20.628 53.488-36.070 15.459-15.459 27.608-33.453 36.070-53.488 2.502-5.91 4.626-11.935 6.454-18.043 0 0 6.783-21.468 6.783-47.496 0-20.546-4.774-40.153-6.783-47.496z" horiz-adv-x="486" />
<glyph unicode="&#xe603;" d="M231.247 170.307c-6.214 2.072-10.357 7.767-10.357 14.498v5.178h72.494v-5.178c0-6.731-4.142-12.427-10.357-14.498-1.553-0.518-3.106-1.036-5.178-1.036h-41.425c-2.071 0-3.625 0.518-5.178 1.036zM365.879 252.121h-222.661c-8.803 0-15.534-6.731-15.534-15.534v-20.712c0-8.803 6.731-15.534 15.534-15.534h227.839c8.803 0 15.534 6.731 15.534 15.534v15.534c0 11.392-9.32 20.712-20.712 20.712zM169.627 281.12c2.589-8.803 12.427-18.642 21.749-18.642h133.596c2.589 0 15.017 1.036 21.231 18.642l35.729 134.113c1.553 7.767 3.106 28.998-11.91 47.121-12.945 15.534-36.247 24.856-66.798 26.926-4.661 1.036-9.32 1.036-13.981 1.036 0 0 0 0 0 0h-72.494c0 0 0 0 0 0-5.178 0-10.357 0-15.017-0.518 0 0 0 0-0.518 0-32.623-3.106-49.71-16.053-58.513-27.445-11.91-15.534-12.945-34.176-9.839-46.603l36.765-134.632zM104.382 313.742c-0.518 1.554-1.553 3.107-2.589 4.661-7.767 10.357-29.516 6.214-40.907 6.214-8.285 0-15.017-6.731-15.017-15.017 0-9.321 6.731-16.053 15.017-16.053h26.409v-72.494c0 0 20.712 0 20.712 0s0 73.529-0.518 80.262c-0.518 4.142-1.035 8.803-3.106 12.427zM453.39 324.615c-11.91 0-33.14 4.143-40.907-6.214-1.036-1.554-2.072-3.107-2.589-4.661-1.553-4.143-2.589-8.285-2.589-12.945-1.036-6.214-1.036-79.743-1.036-79.743s20.712 0 20.712 0v72.494h26.409c8.285 0 15.017 6.731 15.017 16.053 0 8.285-6.731 15.017-15.017 15.017zM361.736 56.387c3.106 0 6.214-0.518 9.32-1.553-9.32 23.819-33.658 42.979-88.029 47.639-3.625 0.518-6.731 0.518-10.357 1.036v55.406h-31.069v-55.406c-3.625 0-7.25-0.518-10.357-0.518-63.173-4.661-88.029-28.479-97.867-47.121 2.071 0.518 3.625 0.518 5.697 0.518 5.178 0 10.357-1.553 15.017-4.661 8.285 12.427 28.48 26.926 77.154 30.551 3.107 0 6.732 0.518 10.357 0.518v-31.069c4.661 3.106 9.839 4.661 15.535 4.661s10.874-1.553 15.534-5.178v31.069c3.625 0 7.25-0.518 10.357-0.518 40.907-3.625 58.513-15.534 66.281-28.479 4.142 2.072 8.285 3.106 12.427 3.106zM270.082 39.817c-3.106 3.625-7.767 6.214-12.945 6.214-4.143 0-7.25-1.553-10.357-3.625-4.143-3.106-6.732-7.767-6.732-12.945 0-0.518 0-0.518 0-1.036 0-9.32 7.767-17.087 17.087-17.087s17.087 7.767 17.087 17.087c0 0.518 0 0.518 0 1.036 0 4.142-1.553 7.767-4.142 10.357zM375.2 39.817c-3.106 3.625-7.767 6.214-12.945 6.214-4.142 0-7.25-1.553-10.357-3.625-4.142-3.106-6.731-7.767-6.731-12.945 0-0.518 0-0.518 0-1.036 0-9.32 7.767-17.087 17.087-17.087s17.087 7.767 17.087 17.087c0 0.518 0 0.518 0 1.036-0.518 4.142-2.072 7.767-4.142 10.357zM152.539 39.817c-3.107 3.625-7.767 6.214-12.945 6.214-4.143 0-7.25-1.553-10.357-3.625-4.142-3.106-6.731-7.767-6.731-12.945 0-0.518 0-0.518 0-1.036 0-9.32 7.767-17.087 17.087-17.087s17.088 7.767 17.088 17.087c0 0.518 0 0.518 0 1.036-0.518 4.142-2.071 7.767-4.143 10.357z" />
<glyph unicode="&#xe604;" d="M431.976 275.418c-10.923 81.313-76.459 146.849-157.772 156.558v64.323h-47.332v-64.323c-81.313-9.709-146.849-75.245-156.559-156.558h-52.186v-47.332h52.186c9.71-81.313 75.246-146.849 156.559-157.772v-54.613h47.332v54.613c81.313 10.923 146.849 76.459 157.772 157.772h61.895v47.332zM364.014 228.087h35.195c-10.923-64.322-60.681-114.081-125.003-125.004v41.264l-23.059 25.486-24.273-25.486v-41.264c-63.109 10.923-114.081 60.682-123.79 125.004h44.904l24.273 23.058-24.273 24.273h-44.904c9.71 63.109 60.681 114.081 123.79 123.79v-31.554l24.273-25.487 23.059 25.487v31.554c64.322-9.709 114.081-60.681 125.004-123.79h-35.195l-24.272-24.273z" />
<glyph unicode="&#xe605;" d="M500.623 77.298v0l-42.098 73.956h15.929c3.413 0 6.827 3.413 6.827 6.827 0 1.137 0 1.137-1.137 2.276v0l-38.685 68.267h9.103c2.276 0 4.551 2.276 4.551 4.551 0 1.137 0 1.137 0 2.276v0l-58.026 98.986c-1.137 2.276-3.413 4.551-6.827 4.551-2.276 0-5.689-2.276-6.827-4.551v0l-56.889-98.986c0-1.137 0-1.137 0-2.276 0-2.276 1.137-4.551 4.551-4.551v0h9.103l-38.685-68.267c-1.137-1.137-1.137-1.137-1.137-2.276 0-3.413 2.276-6.827 5.689-6.827v0h17.067l-12.515-21.618-48.925 85.334h23.894c4.551 0 9.103 3.413 9.103 9.103 0 1.137 0 2.276-1.137 3.413v1.137l-55.751 95.573h13.654c3.413 0 6.826 2.276 6.826 5.689 0 1.137 0 2.276-1.137 3.413v0l-80.782 139.946c-1.137 3.413-4.551 5.689-9.102 5.689s-7.964-2.276-10.24-5.689l-80.782-139.946c0-1.137 0-2.276 0-3.413 0-3.413 2.275-5.689 5.689-5.689v0h13.653l-54.614-94.435c-1.138-2.276-2.276-3.413-2.276-5.689 0-5.689 4.551-9.103 9.102-9.103v0h23.894l-59.164-102.4c-1.137-2.276-2.276-4.551-2.276-6.827 0-5.689 5.689-10.24 11.377-10.24v0h114.915v-50.063c0-4.551 4.551-7.964 9.102-7.964h42.097c5.689 0 9.102 3.413 9.102 7.964v50.063h94.436l-10.24-18.204c-1.137-1.137-1.137-2.276-1.137-3.413 0-4.551 3.413-7.964 7.964-7.964v0h81.92v-22.755c0-3.413 2.276-5.689 5.689-5.689h30.72c3.413 0 5.689 2.276 5.689 5.689v22.755h81.92c4.551 0 7.964 3.413 7.964 7.964 0 1.137-1.137 2.276-1.137 3.413z" />
<glyph unicode="&#xe606;" d="M481.735 421.053l-47.332-47.332-30.341-29.127c-15.777-1.214-31.555 4.854-43.69 15.777-10.923 12.136-16.991 27.913-15.777 43.691l76.459 77.672c1.214 1.214 1.214 3.641 0 4.855 0 1.214 0 1.214-1.214 1.214v0c0 0 0 0 0 0s0 0 0 0c-16.991 7.281-35.195 12.136-54.613 12.136-74.031 0-134.713-60.682-134.713-134.713 0-14.564 2.427-27.913 7.281-40.050l-140.781-140.781c-47.331-1.214-84.954-38.837-84.954-86.168s38.837-86.168 86.168-86.168c47.331 0 84.954 37.623 86.168 84.954l140.781 140.781c12.136-4.854 25.486-7.281 40.050-7.281 74.031 0 134.713 60.681 134.713 134.713 0 19.418-4.854 37.622-12.136 54.613 0 0 0 0 0 0s0 1.214 0 1.214v0c0 0-1.214 0-1.214 0-1.214 1.213-3.641 1.213-4.854 0zM134.637 98.228c0-19.418-16.991-35.195-36.409-35.195s-35.195 15.777-35.195 35.195c0 19.418 15.777 36.409 35.195 36.409s36.409-16.991 36.409-36.409z" />
<glyph unicode="&#xe607;" d="M401.635 506.406h-291.271c-6.431 0-11.65-5.22-11.65-11.651v-396.128c0-6.431 5.219-11.651 11.65-11.651s11.65 5.219 11.65 11.651v384.478h267.969v-8.371l-122.334-88.815v-380.325l122.998 89.303c1.567-4.591 5.866-7.917 10.987-7.917 6.431 0 11.651 5.219 11.651 11.651v396.128c0 6.431-5.219 11.645-11.651 11.645zM313.87 186.894c-5.493 0-10.072 6.786-11.255 15.869h-13.118v10.195h13.305c1.392 8.528 5.791 14.803 11.063 14.803 6.385 0 11.558-9.146 11.558-20.435 0.006-11.284-5.173-20.43-11.552-20.43z" />
<glyph unicode="&#xe608;" d="M411.344 32.304c-6.861 0-12.427 5.567-12.427 12.427v410.11h-285.834v-410.11c0-6.861-5.567-12.427-12.427-12.427s-12.427 5.567-12.427 12.427v422.537c0 6.861 5.567 12.427 12.427 12.427h310.689c6.861 0 12.427-5.568 12.427-12.427v-422.537c0-6.861-5.567-12.427-12.427-12.427zM383.383 433.093v-388.361h-254.765v388.361h254.765zM190.755 235.805c0 11.154-7.649 20.195-17.088 20.195s-17.088-9.041-17.088-20.195 7.649-20.195 17.088-20.195 17.088 9.041 17.088 20.195z" />
<glyph unicode="&#xe609;" d="M402.726 207.4h-48.351l-47.592 132.488c13.709 11.75 22.401 29.188 22.401 48.618 0 30.323-21.193 55.791-49.546 62.396v40.297h-29.019v-40.297c-28.355-6.594-49.548-32.074-49.548-62.396 0-19.333 8.61-36.711 22.207-48.448l-47.638-132.658h-48.352v-28.8h41.904l-41.904-119.428 4.431-41.325 29.9 29.599 45.912 131.154h114.962l45.914-131.154 29.887-29.599 4.431 41.325-41.904 119.428h41.904v28.8zM265.122 419.71c17.208 0 31.218-13.995 31.218-31.204s-14.010-31.203-31.218-31.203c-17.196 0-31.204 13.995-31.204 31.203s14.008 31.204 31.204 31.204zM213.978 207.4l42.507 117.636c2.825-0.399 5.7-0.593 8.634-0.593 2.849 0 5.663 0.193 8.428 0.555l42.493-117.599h-102.063z" />
<glyph unicode="&#xe60a;" d="M160 64h-96v96l96-96zM512 416l-320-320-96 96 320 320 96-96zM64 0v32h352v-32h-352z" />
<glyph unicode="&#xe60b;" d="M512 208l-96 96v144h-64v-80l-96 96-256-256v-16h64v-160h160v96h64v-96h160v160h64z" />
<glyph unicode="&#xe60c;" d="M255.952 14.48c-131.36 0-239.664 106.88-241.424 238.24-0.88 64.528 23.424 125.52 68.432 171.744s105.328 72.16 169.84 73.024l3.312 0.016c131.376 0 239.664-106.896 241.392-238.272 0.88-64.496-23.44-125.488-68.432-171.696-45.008-46.24-105.296-72.176-169.792-73.024l-3.328-0.032zM256.112 449.504l-2.672-0.016c-51.696-0.688-100.032-21.472-136.096-58.512-36.048-37.040-55.536-85.904-54.832-137.616 1.408-105.264 88.176-190.88 193.424-190.88l2.672 0.016c51.68 0.688 100 21.472 136.048 58.512 36.064 37.024 55.536 85.888 54.832 137.584-1.36 105.28-88.128 190.912-193.376 190.912zM252.192 112.64h-1.312c-20.016 0.592-34.144 15.36-33.584 35.104 0.56 19.376 15.024 33.488 34.4 33.488l1.184-0.032c20.576-0.608 34.56-15.232 33.952-35.552-0.544-19.392-14.816-33.008-34.64-33.008zM336.432 279.856c-4.752-6.688-15.072-15.008-28.128-25.168l-14.384-9.936c-7.888-6.144-12.64-11.904-14.416-17.568-1.44-4.512-2.096-5.664-2.224-14.752l-0.032-2.336h-54.864l0.16 4.656c0.672 19.104 1.152 30.32 9.056 39.6 12.416 14.56 39.808 32.208 40.96 32.944 3.904 2.976 7.216 6.32 9.68 9.904 5.76 7.936 8.304 14.208 8.304 20.32 0 8.528-2.528 16.416-7.52 23.424-4.816 6.784-13.968 10.208-27.168 10.208-13.104 0-22.064-4.176-27.44-12.704-5.552-8.784-8.32-17.968-8.32-27.392v-2.352h-56.576l0.096 2.464c1.456 34.656 13.824 59.6 36.768 74.16 14.384 9.296 32.304 13.984 53.2 13.984 27.344 0 50.512-6.656 68.688-19.76 18.416-13.28 27.76-33.2 27.76-59.168 0-14.544-4.576-28.192-13.616-40.576v0.048z" />
<glyph unicode="&#xe60d;" d="M0 0h256v512h-256v-512zM160 448h64v-64h-64v64zM160 320h64v-64h-64v64zM160 192h64v-64h-64v64zM32 448h64v-64h-64v64zM32 320h64v-64h-64v64zM32 192h64v-64h-64v64zM288 352h224v-32h-224zM288 0h64v128h96v-128h64v288h-224z" />
<glyph unicode="&#xe60e;" d="M448 384v64h-448v-352c0-17.673 14.327-32 32-32h432c26.511 0 48 21.489 48 48v272h-64zM416 96h-384v320h384v-320zM64 352h320v-32h-320zM256 288h128v-32h-128zM256 224h128v-32h-128zM256 160h96v-32h-96zM64 288h160v-160h-160z" />
<glyph unicode="&#xe60f;" d="M432 512c44.182 0 80-35.817 80-80 0-18.010-5.955-34.629-16-48l-32-32-112 112 32 32c13.371 10.045 29.989 16 48 16zM32 144l-32-144 144 32 296 296-112 112-296-296zM357.789 330.211l-224-224-27.578 27.578 224 224 27.578-27.578z" />
<glyph unicode="&#xe610;" d="M255.92 13.168c-132.080 0-240.976 107.472-242.752 239.568-1.792 133.904 105.696 244.288 239.584 246.096l3.328 0.016c132.128 0 241.008-107.472 242.752-239.584 1.776-133.888-105.68-244.288-239.584-246.080l-3.328-0.016zM256.080 450.848l-2.672-0.016c-107.44-1.44-193.68-90.016-192.24-197.456 1.424-105.984 88.784-192.208 194.752-192.208l2.672 0.016c107.424 1.44 193.664 90.016 192.224 197.456-1.36 105.984-88.736 192.208-194.736 192.208zM278.976 413.008c23.936 0 31.008-13.872 31.008-29.776 0-19.84-15.904-38.192-43.008-38.192-22.688 0-33.456 11.424-32.832 30.256 0 15.904 13.312 37.712 44.832 37.712v0zM217.568 108.8c-16.352 0-28.336 9.936-16.896 53.616l18.768 77.408c3.248 12.416 3.792 17.376 0 17.376-4.896 0-26.144-8.576-38.704-17.024l-8.16 13.392c39.808 33.232 85.584 52.736 105.168 52.736 16.352 0 19.072-19.36 10.928-49.12l-21.504-81.424c-3.792-14.368-2.144-19.344 1.632-19.344 4.896 0 20.992 5.936 36.832 18.368l9.248-12.4c-38.688-38.704-80.912-53.6-97.312-53.584v0z" />
<glyph unicode="&#xe62b;" d="M256 512l-256-160h512l-256 160zM400 320l16-32v-192h64v192l16 32h-96zM272 320l16-32v-192h64v192l16 32h-96zM144 320l16-32v-192h64v192l16 32h-96zM16 320l16-32v-192h64v192l16 32h-96zM16 64l-16-64h512l-16 64h-480zM288 416c0-17.673-14.327-32-32-32s-32 14.327-32 32 14.327 32 32 32c17.673 0 32-14.327 32-32z" />
<glyph unicode="&#xe62d;" d="M432 512h-384c-26.4 0-48-21.6-48-48v-416c0-26.4 21.6-48 48-48h384c26.4 0 48 21.6 48 48v416c0 26.4-21.6 48-48 48zM416 64h-352v384h352v-384zM128 224h224v-32h-224zM128 160h224v-32h-224zM160 368c0 26.51 21.49 48 48 48s48-21.49 48-48c0-26.51-21.49-48-48-48s-48 21.49-48 48zM240 320h-64c-26.4 0-48-14.4-48-32v-32h160v32c0 17.6-21.6 32-48 32z" />
<glyph unicode="&#xe637;" d="M512 352l-256 128-256-128 256-128 256 128zM256 437.515l171.029-85.515-171.029-85.515-171.029 85.515 171.029 85.515zM460.722 281.639l51.278-25.639-256-128-256 128 51.278 25.639 204.722-102.361zM460.722 185.639l51.278-25.639-256-128-256 128 51.278 25.639 204.722-102.361z" />
<glyph unicode="&#xe63f;" d="M64 48c0 26.51 21.49 48 48 48s48-21.49 48-48c0-26.51-21.49-48-48-48s-48 21.49-48 48zM384 48c0 26.51 21.49 48 48 48s48-21.49 48-48c0-26.51-21.49-48-48-48s-48 21.49-48 48zM480 256v192h-416c0 35.346-28.653 64-64 64v-32c17.645 0 32-14.355 32-32l24.037-206.027c-14.647-11.729-24.037-29.75-24.037-49.973 0-35.347 28.654-64 64-64h384v32h-384c-17.673 0-32 14.327-32 32 0 0.11 0.007 0.218 0.008 0.328l415.992 63.672z" />
<glyph unicode="&#xe643;" d="M464 448h-416c-26.4 0-48-21.6-48-48v-288c0-26.4 21.6-48 48-48h416c26.4 0 48 21.6 48 48v288c0 26.4-21.6 48-48 48zM48 416h416c8.673 0 16-7.327 16-16v-48h-448v48c0 8.673 7.327 16 16 16zM464 96h-416c-8.673 0-16 7.327-16 16v144h448v-144c0-8.673-7.327-16-16-16zM64 192h32v-64h-32zM128 192h32v-64h-32zM192 192h32v-64h-32z" />
<glyph unicode="&#xe644;" d="M192 480h-160c-17.6 0-32-14.4-32-32v-160c0-17.6 14.398-32 32-32h160c17.6 0 32 14.4 32 32v160c0 17.6-14.4 32-32 32zM192 352h-160v32h160v-32zM448 480h-160c-17.602 0-32-14.4-32-32v-416c0-17.6 14.398-32 32-32h160c17.6 0 32 14.4 32 32v416c0 17.6-14.4 32-32 32zM448 192h-160v32h160v-32zM448 288h-160v32h160v-32zM192 224h-160c-17.6 0-32-14.4-32-32v-160c0-17.6 14.398-32 32-32h160c17.6 0 32 14.4 32 32v160c0 17.6-14.4 32-32 32zM192 96h-64v-64h-32v64h-64v32h64v64h32v-64h64v-32z" />
<glyph unicode="&#xe64e;" d="M256 496c-132.548 0-240-107.452-240-240s107.451-240 240-240 240 107.452 240 240-107.452 240-240 240zM256 61c-107.695 0-195 87.305-195 195s87.305 195 195 195 195-87.305 195-195-87.305-195-195-195zM301 301l-135 75h-30v-30l75-135 135-75h30v30l-75 135zM256 226c-16.569 0-30 13.432-30 30s13.431 30 30 30c16.568 0 30-13.432 30-30s-13.432-30-30-30z" />
<glyph unicode="&#xe650;" d="M336 416l-160 64-176-64v-384l176 64 160-64 176 64v384l-176-64zM192 439.135l128-51.2v-315.069l-128 51.199v315.070zM32 393.586l128 46.545v-315.9l-128-46.544v315.899zM480 118.414l-128-46.546v315.9l128 46.545v-315.899z" />
<glyph unicode="&#xe655;" d="M256 436c-115.98 0-210-94.020-210-210s94.020-210 210-210 210 94.020 210 210-94.020 210-210 210zM256 57.25c-93.199 0-168.75 75.552-168.75 168.75 0 93.199 75.551 168.75 168.75 168.75 93.198 0 168.75-75.551 168.75-168.75 0-93.198-75.552-168.75-168.75-168.75zM454.18 361.387c7.519 13.149 11.82 28.379 11.82 44.613 0 49.707-40.294 90-90 90-28.977 0-54.751-13.698-71.212-34.967 61.82-12.767 114.94-49.312 149.393-99.646zM207.213 461.033c-16.46 21.269-42.236 34.967-71.213 34.967-49.707 0-90-40.293-90-90 0-16.234 4.3-31.464 11.82-44.613 34.453 50.334 87.573 86.879 149.393 99.646zM226 346h30v-150h-30v150zM256 226h90v-30h-90v30z" />
<glyph unicode="&#xe65a;" d="M128 480h256v-64h-256zM480 384h-448c-17.6 0-32-14.4-32-32v-160c0-17.6 14.398-32 32-32h96v-128h256v128h96c17.6 0 32 14.4 32 32v160c0 17.6-14.4 32-32 32zM352 64h-192v160h192v-160zM487.2 336c0-12.813-10.387-23.2-23.199-23.2s-23.201 10.387-23.201 23.2 10.388 23.2 23.201 23.2c12.813 0 23.199-10.387 23.199-23.2z" />
<glyph unicode="&#xe661;" d="M490.594 367.946c-44.404 6.384-91.691 11.008-141.038 13.61l82.444 82.444-32 32-112.279-112.278c-10.503 0.184-21.078 0.278-31.721 0.278v0l-128 128-32-32 97.098-97.098c-60.461-2.121-118.169-7.262-171.693-14.956-13.766-53.863-21.405-113.376-21.405-175.946s7.639-122.083 21.402-175.945c71.821-10.326 151.17-16.055 234.598-16.055s162.775 5.729 234.594 16.055c13.767 53.862 21.406 113.375 21.406 175.945s-7.639 122.083-21.406 175.946zM431.946 74.703c-53.865-6.883-113.375-10.703-175.946-10.703s-122.083 3.82-175.946 10.703c-10.324 35.908-16.054 75.583-16.054 117.297s5.729 81.39 16.054 117.298c53.863 6.883 113.375 10.702 175.946 10.702 62.568 0 122.081-3.819 175.943-10.702 10.328-35.908 16.057-75.583 16.057-117.298 0-41.714-5.729-81.389-16.054-117.297z" />
<glyph unicode="&#xe663;" d="M352 416h-192l-160-192v-128c0-17.673 14.327-32 32-32h448c17.674 0 32 14.327 32 32v128l-160 192zM384 224l-64-64h-128l-64 64h-86.345l133.333 160h162.024l133.333-160h-86.345z" />
<glyph unicode="&#xe664;" d="M352 416h-192l-160-192v-128c0-17.673 14.327-32 32-32h448c17.674 0 32 14.327 32 32v128l-160 192zM320 160h-128l-32 32h192l-32-32zM41.655 224l133.333 160h162.024l133.333-160h-428.69zM142.482 320h227.036l-26.667 32h-173.703zM89.149 256h333.703l-26.667 32h-280.37z" />
<glyph unicode="&#xe668;" d="M256 224l128 128h-96v128h-64v-128h-96zM372.363 276.364l-35.87-35.871 130.040-48.493-210.533-78.509-210.533 78.509 130.040 48.493-35.871 35.871-139.636-52.364v-128l256-96 256 96v128z" />
<glyph unicode="&#xe669;" d="M224 224h64v128h96l-128 128-128-128h96zM320 296v-49.356l146.533-54.644-210.533-78.509-210.533 78.509 146.533 54.644v49.356l-192-72v-128l256-96 256 96v128z" />
<glyph unicode="&#xe66e;" d="M0 320h512v192zM512 32v192h-512z" />
<glyph unicode="&#xe66f;" d="M288 512v-512h192zM0 0h192v512z" />
<glyph unicode="&#xe670;" d="M380.931 0c56.863 103.016 66.444 260.153-156.931 254.912v-126.912l-192 192 192 192v-124.186c267.481 6.971 297.285-236.107 156.931-387.814z" />
<glyph unicode="&#xe671;" d="M288 387.814v124.186l192-192-192-192v126.912c-223.375 5.241-213.794-151.896-156.93-254.912-140.356 151.707-110.55 394.785 156.93 387.814z" />
<glyph unicode="&#xe672;" d="M131.070 512c-56.864-103.016-66.445-260.152 156.93-254.912v126.912l192-192-192-192v124.186c-267.48-6.971-297.286 236.107-156.93 387.814z" />
<glyph unicode="&#xe673;" d="M224 124.186v-124.186l-192 192 192 192v-126.912c223.375-5.24 213.794 151.896 156.931 254.912 140.355-151.707 110.55-394.785-156.931-387.814z" />
<glyph unicode="&#xe682;" d="M192 448c0 35.346 28.654 64 64 64s64-28.654 64-64c0-35.346-28.654-64-64-64s-64 28.654-64 64zM327.765 391.765c0 35.346 28.654 64 64 64s64-28.654 64-64c0-35.346-28.654-64-64-64s-64 28.654-64 64zM416 256c0 17.673 14.327 32 32 32s32-14.327 32-32c0-17.673-14.327-32-32-32s-32 14.327-32 32zM359.765 120.235c0 17.673 14.327 32 32 32s32-14.327 32-32c0-17.673-14.327-32-32-32s-32 14.327-32 32zM224.001 64c0 0 0 0 0 0 0 17.673 14.327 32 32 32s32-14.327 32-32c0 0 0 0 0 0 0-17.673-14.327-32-32-32s-32 14.327-32 32zM88.236 120.235c0 0 0 0 0 0 0 17.673 14.327 32 32 32s32-14.327 32-32c0 0 0 0 0 0 0-17.673-14.327-32-32-32s-32 14.327-32 32zM72.236 391.765c0 0 0 0 0 0 0 26.51 21.49 48 48 48s48-21.49 48-48c0 0 0 0 0 0 0-26.51-21.49-48-48-48s-48 21.49-48 48zM28 256c0 19.882 16.117 36 36 36s36-16.118 36-36c0-19.882-16.118-36-36-36s-36 16.118-36 36z" />
<glyph unicode="&#xe689;" d="M496.131 76.302l-121.276 103.147c-12.537 11.283-25.945 16.463-36.776 15.963 28.628 33.534 45.921 77.039 45.921 124.588 0 106.039-85.961 192-192 192s-192-85.961-192-192c0-106.039 85.961-192 192-192 47.549 0 91.054 17.293 124.588 45.922-0.5-10.831 4.68-24.239 15.963-36.776l103.147-121.276c17.661-19.623 46.511-21.277 64.11-3.678s15.946 46.449-3.677 64.11zM192 192c-70.692 0-128 57.308-128 128s57.308 128 128 128 128-57.308 128-128-57.307-128-128-128z" />
<glyph unicode="&#xe68a;" d="M496.131 76.302l-121.276 103.147c-12.537 11.283-25.945 16.463-36.776 15.963 28.628 33.534 45.921 77.039 45.921 124.588 0 106.039-85.961 192-192 192s-192-85.961-192-192c0-106.039 85.961-192 192-192 47.549 0 91.054 17.293 124.588 45.922-0.5-10.831 4.68-24.239 15.963-36.776l103.147-121.276c17.661-19.623 46.511-21.277 64.11-3.678s15.946 46.449-3.677 64.11zM192 192c-70.692 0-128 57.308-128 128s57.308 128 128 128 128-57.308 128-128-57.307-128-128-128zM224 416h-64v-64h-64v-64h64v-64h64v64h64v64h-64z" />
<glyph unicode="&#xe68b;" d="M496.131 76.302l-121.276 103.147c-12.537 11.283-25.945 16.463-36.776 15.963 28.628 33.534 45.921 77.039 45.921 124.588 0 106.039-85.961 192-192 192s-192-85.961-192-192c0-106.039 85.961-192 192-192 47.549 0 91.054 17.293 124.588 45.922-0.5-10.831 4.68-24.239 15.963-36.776l103.147-121.276c17.661-19.623 46.511-21.277 64.11-3.678s15.946 46.449-3.677 64.11zM192 192c-70.692 0-128 57.308-128 128s57.308 128 128 128 128-57.308 128-128-57.307-128-128-128zM96 352h192v-64h-192z" />
<glyph unicode="&#xe68c;" d="M512 512v-192l-69.13 69.13-106-106-53.74 53.74 106 106-69.13 69.13zM122.87 442.87l106-106-53.74-53.74-106 106-69.13-69.13v192h192zM442.87 122.87l69.13 69.13v-192h-192l69.13 69.13-106 106 53.74 53.74zM228.87 175.13l-106-106 69.13-69.13h-192v192l69.13-69.13 106 106z" />
<glyph unicode="&#xe68d;" d="M32 224h192v-192l-69.13 69.13-101-101-53.74 53.74 101 101zM410.87 154.87l101-101-53.74-53.74-101 101-69.13-69.13v192h192zM480 288h-192v192l69.13-69.13 101 101 53.74-53.74-101-101zM154.87 410.87l69.13 69.13v-192h-192l69.13 69.13-101 101 53.74 53.74z" />
<glyph unicode="&#xe68e;" d="M512 512v-208l-80 80-96-96-48 48 96 96-80 80zM224 176l-96-96 80-80h-208v208l80-80 96 96z" />
<glyph unicode="&#xe68f;" d="M224 224v-208l-80 80-96-96-48 48 96 96-80 80zM512 464l-96-96 80-80h-208v208l80-80 96 96z" />
<glyph unicode="&#xe691;" d="M352 512c-88.365 0-160-71.634-160-160 0-10.013 0.929-19.808 2.688-29.312l-194.688-194.688v-96c0-17.673 14.327-32 32-32h32v32h64v64h64v64h64l41.521 41.521c17.005-6.158 35.348-9.521 54.479-9.521 88.365 0 160 71.634 160 160s-71.635 160-160 160zM399.937 351.937c-26.51 0-48 21.49-48 48s21.49 48 48 48 48-21.49 48-48-21.49-48-48-48z" />
<glyph unicode="&#xe693;" d="M401.067 307.2h-8.534v102.4c0 56.464-45.936 102.4-102.4 102.4h-68.267c-56.464 0-102.4-45.936-102.4-102.4v-102.4h-8.534c-14.080 0-25.6-11.52-25.6-25.6v-256c0-14.080 11.52-25.6 25.6-25.6h290.134c14.080 0 25.6 11.52 25.6 25.6v256c0 14.080-11.52 25.6-25.6 25.6zM290.134 68.267h-68.267l14.848 74.24c-8.964 6.151-14.848 16.466-14.848 28.16 0 18.851 15.282 34.134 34.133 34.134s34.134-15.282 34.134-34.134c0-11.694-5.885-22.010-14.848-28.16l14.848-74.24zM324.267 307.2h-136.534v102.4c0 18.821 15.312 34.133 34.133 34.133h68.266c18.822 0 34.133-15.312 34.133-34.133v-102.4z" />
<glyph unicode="&#xe694;" d="M399 496h-64c-52.935 0-96-43.065-96-96v-96h-200c-13.2 0-24-10.8-24-24v-240c0-13.2 10.8-24 24-24h272c13.2 0 24 10.8 24 24v240c0 13.2-10.8 24-24 24h-8v96c0 17.645 14.355 32 32 32h64c17.645 0 32-14.355 32-32v-96h64v96c0 52.935-43.065 96-96 96zM207 80h-64l13.92 69.6c-8.404 5.766-13.92 15.437-13.92 26.4 0 17.673 14.327 32 32 32s32-14.327 32-32c0-10.963-5.516-20.634-13.92-26.4l13.92-69.6z" />
<glyph unicode="&#xe69c;" d="M128 416l-64 64h-32v-32l64-64zM160 512h32v-64h-32zM288 352h64v-32h-64zM320 448v32h-32l-64-64 32-32zM0 352h64v-32h-64zM160 224h32v-64h-32zM32 224v-32h32l64 64-32 32zM505 71l-318.059 318.059c-9.334 9.334-24.607 9.334-33.941 0l-30.059-30.059c-9.334-9.334-9.334-24.607 0-33.941l318.059-318.059c9.334-9.334 24.607-9.334 33.941 0l30.059 30.059c9.334 9.334 9.334 24.607 0 33.941zM240 240l-96 96 32 32 96-96-32-32z" />
<glyph unicode="&#xe69d;" d="M448 384h-96v64c0 17.6-14.4 32-32 32h-128c-17.6 0-32-14.4-32-32v-64h-96c-35.2 0-64-28.8-64-64v-256c0-35.2 28.8-64 64-64h384c35.2 0 64 28.8 64 64v256c0 35.2-28.8 64-64 64zM192 448h128v-64h-128v64zM384 160h-96v-96h-64v96h-96v64h96v96h64v-96h96v-64z" />
<glyph unicode="&#xe6a0;" d="M64 64h448v-64h-512v512h64zM144 96c-26.51 0-48 21.49-48 48s21.49 48 48 48c1.414 0 2.811-0.074 4.194-0.193l51.596 85.993c-4.92 7.535-7.79 16.531-7.79 26.201 0 26.51 21.49 48 48 48s48-21.49 48-48c0-9.671-2.87-18.666-7.79-26.201l51.596-85.993c1.383 0.119 2.78 0.193 4.194 0.193 1.068 0 2.124-0.047 3.175-0.115l85.178 149.061c-5.268 7.704-8.353 17.018-8.353 27.055 0 26.51 21.49 48 48 48s48-21.49 48-48c0-26.51-21.49-48-48-48-1.070 0-2.124 0.047-3.175 0.116l-85.178-149.062c5.268-7.703 8.353-17.018 8.353-27.055 0-26.51-21.49-48-48-48s-48 21.49-48 48c0 9.67 2.87 18.666 7.789 26.201l-51.595 85.992c-1.383-0.119-2.78-0.193-4.194-0.193s-2.811 0.073-4.194 0.193l-51.596-85.993c4.92-7.534 7.79-16.53 7.79-26.2 0-26.51-21.49-48-48-48z" />
<glyph unicode="&#xe6a3;" d="M385.758 352c9.063 6.44 17.756 13.608 25.722 21.574 16.701 16.701 27.873 37.25 31.456 57.861 3.929 22.593-1.836 43.57-15.815 57.55-11.15 11.149-26.255 17.043-43.682 17.043-24.816 0-50.961-11.912-71.73-32.681-33.238-33.238-52.613-79.119-63.038-111.861-7.72 32.901-23.103 77.322-53.009 107.229-16.047 16.046-36.557 24.285-55.923 24.285-15.827 0-30.89-5.502-42.13-16.743-24.993-24.994-21.616-68.893 7.543-98.052 10.396-10.396 22.549-19.031 35.36-26.206h-108.512v-128h32v-224h384v224.001h32v128h-94.242zM337.163 447.891c13.862 13.862 31.161 22.137 46.275 22.137 5.35 0 12.854-1.127 18.225-6.499 13.015-13.014 5.706-43.154-15.64-64.499-21.973-21.973-51.53-37.084-77.216-47.030h-25.336c9.284 28.774 26.029 68.228 53.692 95.891zM116.967 431.555c-0.351 4.56-0.025 13.124 6.098 19.247 5.122 5.122 11.894 6.198 16.674 6.198v0c10.629 0 21.734-5.008 30.466-13.74 16.936-16.936 30.883-43.886 40.334-77.938 0.255-0.92 0.504-1.835 0.748-2.743-0.908 0.243-1.823 0.492-2.743 0.748-34.052 9.452-61.001 23.399-77.937 40.335-7.914 7.913-12.885 18.080-13.64 27.893zM224 32h-128v208h128v-208zM224 256h-160v64h160v-64zM416 32h-128v208h128v-208zM448 256h-160v64h160v-64z" />
<glyph unicode="&#xe6bd;" d="M224 114.745l-102.627 118.627 29.254 29.255 73.373-57.372 137.372 121.372 29.256-29.254zM415.886 448c0.039-0.033 0.081-0.075 0.114-0.115v-383.771c-0.033-0.039-0.075-0.081-0.114-0.114h-319.772c-0.040 0.033-0.081 0.075-0.114 0.114v383.772c0.033 0.040 0.075 0.081 0.115 0.114h-64.115v-384c0-35.2 28.8-64 64-64h320c35.2 0 64 28.8 64 64v384h-64.114zM320 448v32c0 17.673-14.327 32-32 32h-64c-17.673 0-32-14.327-32-32v-32h-64v-64h256v64h-64zM288 448h-64v32h64v-32z" />
<glyph unicode="&#xe6c2;" d="M32 416h448v-96h-448zM32 288h448v-96h-448zM32 160h448v-96h-448z" />
<glyph unicode="&#xe6cd;" d="M476.698 474.679l-2.014 2.021c-47.074 47.067-124.097 47.067-171.163 0l-109.053-109.068c-47.067-47.066-47.067-124.088 0-171.155l2.013-2.013c3.916-3.924 8.073-7.462 12.368-10.729l39.924 39.925c-4.651 2.747-9.063 6.036-13.058 10.030l-2.021 2.021c-25.557 25.549-25.557 67.136 0 92.695l109.064 109.056c25.558 25.559 67.137 25.559 92.693 0l2.021-2.012c25.55-25.558 25.55-67.146 0-92.695l-49.343-49.343c8.566-21.154 12.624-43.7 12.269-66.193l76.302 76.302c47.067 47.068 47.067 124.089-0.002 171.158zM315.521 317.533c-3.916 3.916-8.073 7.461-12.368 10.72l-39.924-39.916c4.652-2.748 9.063-6.037 13.058-10.031l2.021-2.020c25.558-25.558 25.558-67.136 0-92.694l-109.065-109.067c-25.559-25.551-67.138-25.551-92.694 0l-2.021 2.021c-25.549 25.56-25.549 67.138 0 92.694l49.344 49.343c-8.567 21.153-12.623 43.701-12.269 66.193l-76.301-76.299c-47.068-47.066-47.068-124.089 0-171.162l2.013-2.016c47.076-47.064 124.096-47.064 171.164 0l109.055 109.059c47.067 47.066 47.067 124.097 0 171.163l-2.013 2.012z" />
<glyph unicode="&#xe6cf;" d="M348.916 348.476l-32.476 32.461-162.405-162.371c-26.907-26.896-26.907-70.524 0-97.422 26.902-26.896 70.53-26.896 97.437 0l194.886 194.854c44.857 44.831 44.857 117.531 0 162.363-44.833 44.852-117.556 44.852-162.391 0l-204.615-204.589c-0.145-0.152-0.306-0.288-0.438-0.423-62.551-62.548-62.551-163.928 0-226.453 62.527-62.528 163.934-62.528 226.494 0 0.137 0.137 0.258 0.284 0.41 0.438l0.016-0.017 139.666 139.646-32.493 32.46-139.665-139.631c-0.148-0.134-0.282-0.285-0.423-0.422-44.537-44.529-116.99-44.529-161.538 0-44.531 44.521-44.531 116.961 0 161.489 0.152 0.152 0.302 0.291 0.444 0.423l-0.023 0.030 204.64 204.583c26.856 26.869 70.572 26.869 97.443 0 26.856-26.867 26.856-70.574 0-97.42l-194.886-194.85c-8.968-8.961-23.527-8.961-32.486 0-8.947 8.943-8.947 23.516 0 32.46l162.403 162.391z" />
<glyph unicode="&#xe6d3;" d="M96 512v-512l160 160 160-160v512z" />
<glyph unicode="&#xe6db;" d="M512 332.922c0-43.181-18.609-82.015-48.245-108.922h0.245l-160-160c-16-16-32-32-48-32s-32 16-48 32l-159.755 160c-29.636 26.907-48.245 65.741-48.245 108.922 0 81.229 65.849 147.078 147.078 147.078 43.181 0 82.015-18.609 108.922-48.245 26.907 29.636 65.741 48.245 108.922 48.245 81.228 0 147.078-65.849 147.078-147.078z" />
<glyph unicode="&#xe6dc;" d="M512 332.922c0 81.229-65.85 147.078-147.078 147.078-43.181 0-82.015-18.609-108.922-48.245-26.907 29.636-65.741 48.245-108.922 48.245-81.229 0-147.078-65.849-147.078-147.078 0-43.181 18.609-82.015 48.245-108.922h-0.245l160-160c16-16 32-32 48-32s32 16 48 32l159.755 160c29.636 26.907 48.245 65.741 48.245 108.922zM420.734 271.384l-161.989-162.129c-0.839-0.839-1.766-1.766-2.745-2.74-0.98 0.975-1.907 1.901-2.745 2.74l-161.989 162.128c-17.583 15.964-27.266 37.819-27.266 61.539 0 45.809 37.269 83.078 83.078 83.078 23.72 0 45.575-9.683 61.538-27.266l47.384-52.19 47.384 52.189c15.964 17.584 37.818 27.267 61.538 27.267 45.809 0 83.078-37.269 83.078-83.078 0-23.72-9.684-45.575-27.266-61.538z" />
<glyph unicode="&#xe6dd;" d="M512 332.922c0-43.181-18.609-82.015-48.245-108.922h0.245l-160-160c-16-16-32-32-48-32s-32 16-48 32l-159.755 160c-29.636 26.907-48.245 65.741-48.245 108.922 0 81.229 65.849 147.078 147.078 147.078 27.725 0 53.651-7.682 75.786-21.018l-46.864-74.982 112-64-64-160 176 192-112 64 39.446 59.17c11.966 3.144 24.523 4.83 37.476 4.83 81.228 0 147.078-65.849 147.078-147.078z" />
<glyph unicode="&#xe6e0;" d="M256 16c132.548 0 240 107.452 240 240s-107.452 240-240 240-240-107.452-240-240 107.451-240 240-240zM256 451c107.695 0 195-87.305 195-195s-87.305-195-195-195-195 87.305-195 195 87.305 195 195 195zM256 215.332c54.351 0 106.046 14.44 150 39.806-6.832-83.643-71.779-149.137-150-149.137-78.219 0-143.167 65.565-150 149.205 43.954-25.365 95.649-39.873 150-39.873zM136 331c0 24.852 13.431 45 30 45s30-20.148 30-45c0-24.852-13.431-45-30-45s-30 20.148-30 45zM316 331c0 24.852 13.432 45 30 45s30-20.148 30-45c0-24.852-13.432-45-30-45s-30 20.148-30 45z" />
<glyph unicode="&#xe6e1;" d="M256 496c-132.548 0-240-107.452-240-240s107.451-240 240-240 240 107.452 240 240-107.452 240-240 240zM346 376c16.57 0 30-20.147 30-45s-13.43-45-30-45-30 20.147-30 45 13.43 45 30 45zM166 376c16.569 0 30-20.147 30-45s-13.431-45-30-45-30 20.147-30 45 13.431 45 30 45zM256 76c-78.219 0-143.167 65.565-150 149.205 43.954-25.366 95.649-39.873 150-39.873s106.046 14.44 150 39.806c-6.832-83.643-71.779-149.137-150-149.137z" />
<glyph unicode="&#xe6e2;" d="M256 16c132.548 0 240 107.452 240 240s-107.452 240-240 240-240-107.452-240-240 107.451-240 240-240zM256 451c107.695 0 195-87.305 195-195s-87.305-195-195-195-195 87.305-195 195 87.305 195 195 195zM136 346c0 16.568 13.431 30 30 30s30-13.432 30-30c0-16.568-13.431-30-30-30s-30 13.432-30 30zM316 346c0 16.568 13.432 30 30 30s30-13.432 30-30c0-16.568-13.432-30-30-30s-30 13.432-30 30zM346.046 201.972l38.591-23.154c-26.232-43.627-74.023-72.817-128.637-72.817s-102.405 29.191-128.637 72.817l38.591 23.154c18.363-30.538 51.816-50.972 90.046-50.972s71.683 20.433 90.046 50.972z" />
<glyph unicode="&#xe6e3;" d="M256 496c-132.548 0-240-107.452-240-240s107.451-240 240-240 240 107.452 240 240-107.452 240-240 240zM346 376c16.568 0 30-13.432 30-30s-13.432-30-30-30-30 13.432-30 30 13.432 30 30 30zM166 376c16.569 0 30-13.432 30-30s-13.431-30-30-30-30 13.432-30 30 13.431 30 30 30zM256 106c-54.614 0-102.405 29.191-128.637 72.817l38.591 23.154c18.363-30.538 51.816-50.972 90.046-50.972s71.683 20.433 90.046 50.972l38.591-23.154c-26.232-43.627-74.023-72.817-128.637-72.817z" />
<glyph unicode="&#xe6e6;" d="M256 16c132.548 0 240 107.452 240 240s-107.452 240-240 240-240-107.452-240-240 107.451-240 240-240zM256 451c107.695 0 195-87.305 195-195s-87.305-195-195-195-195 87.305-195 195 87.305 195 195 195zM136 346c0 16.568 13.431 30 30 30s30-13.432 30-30c0-16.568-13.431-30-30-30s-30 13.432-30 30zM316 346c0 16.568 13.432 30 30 30s30-13.432 30-30c0-16.568-13.432-30-30-30s-30 13.432-30 30zM165.954 130.028l-38.591 23.154c26.232 43.627 74.023 72.817 128.637 72.817 54.613 0 102.404-29.191 128.637-72.817l-38.591-23.154c-18.363 30.538-51.817 50.972-90.046 50.972-38.231 0-71.683-20.433-90.046-50.972z" />
<glyph unicode="&#xe6e7;" d="M256 496c-132.548 0-240-107.452-240-240s107.451-240 240-240 240 107.452 240 240-107.452 240-240 240zM346 376c16.568 0 30-13.432 30-30s-13.432-30-30-30-30 13.432-30 30 13.432 30 30 30zM166 376c16.569 0 30-13.432 30-30s-13.431-30-30-30-30 13.432-30 30 13.431 30 30 30zM346.046 130.028c-18.363 30.538-51.817 50.972-90.046 50.972-38.23 0-71.683-20.433-90.046-50.972l-38.591 23.154c26.231 43.627 74.023 72.817 128.637 72.817 54.613 0 102.405-29.191 128.637-72.817l-38.591-23.154z" />
<glyph unicode="&#xe6f2;" d="M256 16c132.548 0 240 107.452 240 240s-107.452 240-240 240-240-107.452-240-240 107.451-240 240-240zM256 451c107.695 0 195-87.305 195-195s-87.305-195-195-195-195 87.305-195 195 87.305 195 195 195zM196 166c0 33.137 26.863 60 60 60s60-26.863 60-60c0-33.137-26.863-60-60-60s-60 26.863-60 60zM316 331c0 24.852 13.432 45 30 45s30-20.148 30-45c0-24.852-13.432-45-30-45s-30 20.148-30 45zM136 331c0 24.852 13.431 45 30 45s30-20.148 30-45c0-24.852-13.431-45-30-45s-30 20.148-30 45z" />
<glyph unicode="&#xe6f3;" d="M256 496c-132.548 0-240-107.452-240-240s107.451-240 240-240 240 107.452 240 240-107.452 240-240 240zM166 286c-16.569 0-30 20.147-30 45s13.431 45 30 45 30-20.147 30-45-13.431-45-30-45zM256 106c-33.137 0-60 26.863-60 60s26.863 60 60 60c33.137 0 60-26.863 60-60s-26.863-60-60-60zM346 286c-16.568 0-30 20.147-30 45s13.432 45 30 45 30-20.147 30-45-13.432-45-30-45z" />
<glyph unicode="&#xe6f4;" d="M256 16c132.548 0 240 107.452 240 240s-107.452 240-240 240-240-107.452-240-240 107.451-240 240-240zM256 451c107.695 0 195-87.305 195-195s-87.305-195-195-195-195 87.305-195 195 87.305 195 195 195zM136 346c0 16.568 13.431 30 30 30s30-13.432 30-30c0-16.568-13.431-30-30-30s-30 13.432-30 30zM316 346c0 16.568 13.432 30 30 30s30-13.432 30-30c0-16.568-13.432-30-30-30s-30 13.432-30 30zM356.362 196h30.405c4.334-33.987-15.212-67.749-48.731-79.95-38.861-14.145-81.985 5.961-96.131 44.82-8.488 23.317-34.362 35.382-57.679 26.893-21.357-7.776-33.261-30.139-28.588-51.761h-30.403c-4.332 33.988 15.211 67.748 48.73 79.95 38.862 14.146 81.986-5.961 96.132-44.819 8.486-23.32 34.362-35.382 57.677-26.893 21.357 7.774 33.26 30.139 28.588 51.76z" />
<glyph unicode="&#xe6f5;" d="M256 496c-132.548 0-240-107.452-240-240s107.45-240 240-240c132.548 0 240 107.452 240 240s-107.452 240-240 240zM346 376c16.568 0 30-13.432 30-30s-13.432-30-30-30-30 13.432-30 30c0 16.568 13.432 30 30 30zM166 376c16.569 0 30-13.432 30-30s-13.431-30-30-30-30 13.432-30 30c0 16.568 13.431 30 30 30zM338.036 116.050c-38.861-14.147-81.984 5.959-96.132 44.819-8.488 23.317-34.362 35.38-57.678 26.893-21.357-7.776-33.262-30.139-28.588-51.762h-30.403c-4.333 33.988 15.211 67.75 48.73 79.95 38.861 14.147 81.986-5.959 96.132-44.819 8.488-23.317 34.362-35.38 57.678-26.892 21.357 7.774 33.262 30.138 28.588 51.76h30.405c4.332-33.987-15.213-67.75-48.731-79.95z" />
<glyph unicode="&#xe6f6;" d="M256 16c132.548 0 240 107.452 240 240s-107.452 240-240 240-240-107.452-240-240 107.451-240 240-240zM256 451c107.695 0 195-87.305 195-195s-87.305-195-195-195-195 87.305-195 195 87.305 195 195 195zM136 346c0-16.568 13.431-30 30-30s30 13.432 30 30-13.431 30-30 30-30-13.432-30-30zM316 346c0-16.568 13.432-30 30-30s30 13.432 30 30-13.432 30-30 30-30-13.432-30-30zM196 166h120v-30h-120v30z" />
<glyph unicode="&#xe6f7;" d="M256 496c-132.548 0-240-107.452-240-240s107.45-240 240-240c132.548 0 240 107.452 240 240s-107.452 240-240 240zM316 136h-120v30h120v-30zM346 376c16.568 0 30-13.432 30-30s-13.432-30-30-30-30 13.432-30 30c0 16.568 13.432 30 30 30zM166 376c16.569 0 30-13.432 30-30s-13.431-30-30-30-30 13.432-30 30c0 16.568 13.431 30 30 30z" />
<glyph unicode="&#xe6f8;" d="M256 16c132.548 0 240 107.452 240 240s-107.452 240-240 240-240-107.452-240-240 107.451-240 240-240zM256 451c107.695 0 195-87.305 195-195s-87.305-195-195-195-195 87.305-195 195 87.305 195 195 195zM365.565 213.99l10.541-35.988-204.847-60.001-10.541 35.988zM136 346c0 16.568 13.431 30 30 30s30-13.432 30-30c0-16.568-13.431-30-30-30s-30 13.432-30 30zM316 346c0 16.568 13.432 30 30 30s30-13.432 30-30c0-16.568-13.432-30-30-30s-30 13.432-30 30z" />
<glyph unicode="&#xe6f9;" d="M256 496c-132.548 0-240-107.452-240-240s107.451-240 240-240 240 107.452 240 240-107.452 240-240 240zM346 376c16.568 0 30-13.432 30-30s-13.432-30-30-30-30 13.432-30 30 13.432 30 30 30zM136 346c0 16.568 13.431 30 30 30s30-13.432 30-30-13.431-30-30-30-30 13.432-30 30zM171.27 118.007l-10.541 35.988 204.844 60 10.541-35.988-204.844-60z" />
<glyph unicode="&#xe707;" d="M73.987 368.489c0.002-0.002 0.004-0.004 0.004-0.004l112.483-112.486-112.484-112.486c-0.002-0.002-0.004-0.003-0.004-0.003-1.211-1.212-2.086-2.627-2.647-4.134-1.537-4.119-0.66-8.937 2.652-12.25l53.136-53.137c3.313-3.312 8.13-4.188 12.25-2.651 1.506 0.561 2.922 1.437 4.135 2.647 0 0.002 0.002 0.003 0.004 0.003l112.485 112.487 112.486-112.486c0.002-0.002 0.003-0.003 0.003-0.003 1.212-1.21 2.627-2.086 4.133-2.647 4.121-1.538 8.937-0.661 12.25 2.651l53.137 53.137c3.313 3.312 4.189 8.13 2.651 12.25-0.562 1.507-1.438 2.923-2.647 4.134-0.002 0.001-0.003 0.003-0.003 0.003l-112.486 112.486 112.486 112.487c0.001 0.002 0.003 0.003 0.003 0.003 1.21 1.212 2.086 2.627 2.648 4.133 1.538 4.119 0.661 8.937-2.651 12.251l-53.137 53.137c-3.313 3.312-8.13 4.189-12.25 2.651-1.507-0.562-2.922-1.438-4.134-2.647-0.001-0.002-0.003-0.003-0.003-0.003l-112.486-112.486-112.486 112.486c-0.002 0.001-0.004 0.003-0.004 0.003-1.213 1.211-2.627 2.086-4.133 2.648-4.12 1.538-8.938 0.662-12.249-2.651l-53.136-53.137c-3.312-3.312-4.189-8.131-2.652-12.25 0.562-1.506 1.438-2.921 2.648-4.133z" />
<glyph unicode="&#xe708;" d="M432 448l-240-240-112 112-80-80 192-192 320 320z" />
<glyph unicode="&#xe70a;" d="M64 384h64v-96h32v192c0 17.6-14.4 32-32 32h-64c-17.6 0-32-14.4-32-32v-192h32v96zM64 480h64v-64h-64v64zM480 480v32h-96c-17.601 0-32-14.4-32-32v-160c0-17.6 14.399-32 32-32h96v32h-96v160h96zM320 432v48c0 17.6-14.4 32-32 32h-96v-224h96c17.6 0 32 14.4 32 32v48c0 17.6-4.4 32-22 32 17.6 0 22 14.4 22 32zM288 320h-64v64h64v-64zM288 416h-64v64h64v-64zM416 224l-208-224-112 144 41 35 71-74 176 151z" />
<glyph unicode="&#xe70b;" d="M31 298.188v-84.375c0-7.766 6.297-14.063 14.063-14.063h421.875c7.766 0 14.063 6.296 14.063 14.063v84.375c0 7.766-6.296 14.063-14.063 14.063h-421.875c-7.766 0-14.063-6.297-14.063-14.063z" />
<glyph unicode="&#xe70c;" d="M466.938 312.25h-154.688v154.688c0 7.766-6.296 14.063-14.063 14.063h-84.375c-7.766 0-14.063-6.297-14.063-14.063v-154.688h-154.688c-7.766 0-14.063-6.297-14.063-14.063v-84.375c0-7.766 6.297-14.063 14.063-14.063h154.688v-154.688c0-7.766 6.297-14.063 14.063-14.063h84.375c7.766 0 14.063 6.296 14.063 14.063v154.688h154.688c7.766 0 14.063 6.296 14.063 14.063v84.375c0 7.766-6.296 14.063-14.063 14.063z" />
<glyph unicode="&#xe70d;" d="M192 256h-160v64h160v64l96-96-96-96zM512 512v-416l-192-96v96h-192v128h32v-96h160v288l128 64h-288v-128h-32v160z" />
<glyph unicode="&#xe70e;" d="M384 192v64h-160v64h160v64l96-96zM352 224v-128h-160v-96l-192 96v416h352v-160h-32v128h-256l128-64v-288h128v96z" />
<glyph unicode="&#xe729;" d="M0 128l128 128 256-256 128 128-256 256 127.999 128h-383.999z" />
<glyph unicode="&#xe72a;" d="M256.001 512l-256.001-256h160v-255.999l192-0.001v256h160z" />
<glyph unicode="&#xe72b;" d="M128 512l128.001-128-256.001-256 128-128 256 256 128-127.999v383.999z" />
<glyph unicode="&#xe72c;" d="M512 256l-256 256v-160h-255.999l-0.001-192h256v-160z" />
<glyph unicode="&#xe72d;" d="M512 384l-128-128-256 256-128-128 256.001-256-128-128h383.999z" />
<glyph unicode="&#xe72e;" d="M256 0l256 256h-160v255.999l-192 0.001v-256h-160z" />
<glyph unicode="&#xe72f;" d="M384 0l-128 128 256 256-128 128-256-256.001-128 128v-383.999z" />
<glyph unicode="&#xe730;" d="M0 256l256-256v160h255.999l0.001 192h-256v160z" />
<glyph unicode="&#xe731;" d="M64 224c0-17.674 14.327-32 32-32s32 14.326 32 32v114.746l265.373-265.374c12.496-12.496 32.758-12.496 45.254 0 6.249 6.249 9.373 14.439 9.373 22.628s-3.124 16.379-9.373 22.627l-265.373 265.373h114.746c17.673 0 32 14.327 32 32s-14.327 32-32 32h-224v-224z" />
<glyph unicode="&#xe732;" d="M438.627 310.627l-160 160c-12.496 12.497-32.757 12.497-45.254 0l-160-160c-12.497-12.497-12.497-32.758 0-45.255s32.758-12.498 45.255 0l105.372 105.373v-306.745c0-17.673 14.327-32 32-32s32 14.327 32 32v306.745l105.373-105.373c6.248-6.248 14.438-9.372 22.627-9.372s16.379 3.124 22.627 9.373c12.497 12.497 12.497 32.757 0 45.254z" />
<glyph unicode="&#xe733;" d="M416.010 448c-0.006 0-0.014 0-0.020 0h-191.99c-17.673 0-32-14.327-32-32s14.327-32 32-32h114.746l-265.373-265.373c-12.497-12.496-12.497-32.758 0-45.254 6.248-6.249 14.438-9.373 22.627-9.373s16.379 3.124 22.627 9.373l265.373 265.373v-114.746c0-17.673 14.327-32 32-32s32 14.327 32 32v224h-31.99z" />
<glyph unicode="&#xe734;" d="M310.627 73.373l160 160c12.497 12.496 12.497 32.758 0 45.255l-160 160c-12.497 12.496-32.758 12.496-45.255 0-12.497-12.497-12.497-32.758 0-45.255l105.373-105.373h-306.745c-17.673 0-32-14.327-32-32s14.327-32 32-32h306.745l-105.373-105.373c-6.248-6.248-9.372-14.438-9.372-22.627s3.124-16.379 9.372-22.627c12.497-12.497 32.758-12.497 45.255 0z" />
<glyph unicode="&#xe735;" d="M448 288c0 17.674-14.326 32-32 32s-32-14.326-32-32v-114.746l-265.373 265.374c-12.496 12.496-32.758 12.496-45.254 0-6.249-6.249-9.373-14.439-9.373-22.628s3.124-16.379 9.373-22.627l265.373-265.373h-114.746c-17.673 0-32-14.327-32-32s14.327-32 32-32h224v224z" />
<glyph unicode="&#xe736;" d="M73.373 201.373l160-160c12.496-12.497 32.758-12.497 45.255 0l160 160c12.496 12.497 12.496 32.758 0 45.255-12.497 12.497-32.758 12.497-45.255 0l-105.373-105.373v306.745c0 17.673-14.327 32-32 32s-32-14.327-32-32v-306.745l-105.373 105.373c-6.248 6.248-14.438 9.372-22.627 9.372s-16.379-3.124-22.627-9.372c-12.497-12.497-12.497-32.758 0-45.255z" />
<glyph unicode="&#xe737;" d="M288 64c17.674 0 32 14.326 32 32s-14.326 32-32 32h-114.746l265.374 265.373c12.496 12.496 12.496 32.758 0 45.254-6.249 6.249-14.439 9.373-22.628 9.373s-16.379-3.124-22.627-9.373l-265.373-265.373v114.746c0 17.673-14.327 32-32 32s-32-14.327-32-32v-224h224z" />
<glyph unicode="&#xe738;" d="M201.373 438.627l-160-160c-12.497-12.496-12.497-32.758 0-45.254l160-160c12.497-12.496 32.758-12.496 45.255 0s12.498 32.758 0 45.254l-105.374 105.373h306.746c17.673 0 32 14.326 32 32s-14.327 32-32 32h-306.746l105.373 105.373c6.248 6.248 9.373 14.438 9.373 22.627s-3.124 16.379-9.372 22.627c-12.498 12.497-32.758 12.497-45.255 0z" />
<glyph unicode="&#xe739;" d="M256 512c141.385 0 256-114.615 256-256s-114.615-256-256-256-256 114.615-256 256 114.615 256 256 256zM256 48c114.875 0 208 93.125 208 208s-93.125 208-208 208-208-93.125-208-208 93.125-208 208-208zM320 384c17.673 0 32-14.327 32-32s-14.327-32-32-32h-82.744l137.371-137.372c12.497-12.497 12.497-32.759 0-45.256-6.248-6.248-14.438-9.372-22.627-9.372s-16.379 3.124-22.627 9.372l-137.373 137.373v-82.745c0-17.673-14.327-32-32-32s-32 14.327-32 32v192h192z" />
<glyph unicode="&#xe73a;" d="M512 256c0-141.385-114.615-256-256-256s-256 114.615-256 256 114.615 256 256 256 256-114.615 256-256zM48 256c0-114.875 93.125-208 208-208s208 93.125 208 208-93.125 208-208 208-208-93.125-208-208zM278.627 406.628l128-128.001c12.497-12.496 12.497-32.757 0-45.254s-32.758-12.497-45.255 0l-73.372 73.372v-178.745c0-17.673-14.327-32-32-32s-32 14.327-32 32v178.745l-73.372-73.373c-12.497-12.497-32.759-12.497-45.256 0-6.248 6.249-9.372 14.439-9.372 22.628s3.124 16.379 9.372 22.627l128 128.001c12.497 12.496 32.759 12.496 45.255 0z" />
<glyph unicode="&#xe73b;" d="M256 512c-141.385 0-256-114.615-256-256s114.615-256 256-256 256 114.615 256 256-114.615 256-256 256zM256 48c-114.875 0-208 93.125-208 208s93.125 208 208 208 208-93.125 208-208-93.125-208-208-208zM192 384c-17.673 0-32-14.327-32-32s14.327-32 32-32h82.744l-137.371-137.372c-12.497-12.497-12.497-32.759 0-45.256 6.248-6.248 14.438-9.372 22.627-9.372s16.379 3.124 22.627 9.372l137.373 137.373v-82.745c0-17.673 14.327-32 32-32s32 14.327 32 32v192h-192z" />
<glyph unicode="&#xe73c;" d="M256 512c-141.385 0-256-114.615-256-256s114.615-256 256-256 256 114.615 256 256-114.615 256-256 256zM256 48c-114.875 0-208 93.125-208 208s93.125 208 208 208 208-93.125 208-208-93.125-208-208-208zM406.628 278.627l-128.001 128c-12.496 12.497-32.757 12.497-45.254 0s-12.497-32.758 0-45.255l73.372-73.372h-178.745c-17.673 0-32-14.327-32-32s14.327-32 32-32h178.745l-73.373-73.372c-12.497-12.497-12.497-32.759 0-45.256 6.249-6.248 14.439-9.372 22.628-9.372s16.379 3.124 22.627 9.372l128.001 128c12.496 12.497 12.496 32.759 0 45.255z" />
<glyph unicode="&#xe73d;" d="M256 0c-141.385 0-256 114.615-256 256s114.615 256 256 256 256-114.615 256-256-114.615-256-256-256zM256 464c-114.875 0-208-93.125-208-208s93.125-208 208-208 208 93.125 208 208-93.125 208-208 208zM192 128c-17.673 0-32 14.327-32 32s14.327 32 32 32h82.744l-137.371 137.372c-12.497 12.497-12.497 32.759 0 45.256 6.248 6.248 14.438 9.372 22.627 9.372s16.379-3.124 22.627-9.372l137.373-137.373v82.745c0 17.673 14.327 32 32 32s32-14.327 32-32v-192h-192z" />
<glyph unicode="&#xe73e;" d="M512 256c0 141.385-114.615 256-256 256s-256-114.615-256-256 114.615-256 256-256 256 114.615 256 256zM48 256c0 114.875 93.125 208 208 208s208-93.125 208-208-93.125-208-208-208-208 93.125-208 208zM278.627 105.372l128 128.001c12.497 12.496 12.497 32.757 0 45.254s-32.758 12.497-45.255 0l-73.372-73.372v178.745c0 17.673-14.327 32-32 32s-32-14.327-32-32v-178.745l-73.372 73.373c-12.497 12.497-32.759 12.497-45.256 0-6.248-6.249-9.372-14.439-9.372-22.628s3.124-16.379 9.372-22.627l128-128.001c12.497-12.496 32.759-12.496 45.255 0z" />
<glyph unicode="&#xe73f;" d="M256 0c141.385 0 256 114.615 256 256s-114.615 256-256 256-256-114.615-256-256 114.615-256 256-256zM256 464c114.875 0 208-93.125 208-208s-93.125-208-208-208-208 93.125-208 208 93.125 208 208 208zM320 128c17.673 0 32 14.327 32 32s-14.327 32-32 32h-82.744l137.371 137.372c12.497 12.497 12.497 32.759 0 45.256-6.248 6.248-14.438 9.372-22.627 9.372s-16.379-3.124-22.627-9.372l-137.373-137.373v82.745c0 17.673-14.327 32-32 32s-32-14.327-32-32v-192h192z" />
<glyph unicode="&#xe740;" d="M256 512c141.385 0 256-114.615 256-256s-114.615-256-256-256-256 114.615-256 256 114.615 256 256 256zM256 48c114.875 0 208 93.125 208 208s-93.125 208-208 208-208-93.125-208-208 93.125-208 208-208zM105.372 278.627l128.001 128c12.496 12.497 32.757 12.497 45.254 0s12.497-32.758 0-45.255l-73.372-73.372h178.745c17.673 0 32-14.327 32-32s-14.327-32-32-32h-178.745l73.373-73.372c12.497-12.497 12.497-32.759 0-45.256-6.249-6.248-14.439-9.372-22.628-9.372s-16.379 3.124-22.627 9.372l-128.001 128c-12.496 12.497-12.496 32.759 0 45.255z" />
<glyph unicode="&#xe748;" d="M445.387 157.423c-22.827 22.778-51.864 34.536-78.973 34.536h-14.556l-31.952 32.004 127.81 128.019c31.952 32.005 31.952 96.014 0 128.019l-191.715-192.028-191.716 192.027c-31.952-32.004-31.952-96.014 0-128.019l127.811-128.017-31.953-32.004h-14.557c-27.11 0-56.146-11.759-78.974-34.538-40.811-40.721-46.325-101.242-12.315-135.175 14.985-14.951 35.144-22.247 56.498-22.247 27.108 0 56.145 11.757 78.973 34.536 26.792 26.732 38.371 62 33.542 92.674l32.692 32.744 32.688-32.744c-4.828-30.674 6.753-65.941 33.542-92.674 22.831-22.779 51.866-34.536 78.974-34.536 21.354 0 41.512 7.296 56.497 22.248 34.010 33.933 28.494 94.454-12.316 135.175zM176.512 89.231c-3.849-8.941-9.505-17.173-16.813-24.463-7.318-7.302-15.586-12.959-24.574-16.812-8.066-3.458-16.48-5.284-24.331-5.284-7.573 0-18.306 1.701-26.431 9.806-8.068 8.052-9.76 18.659-9.76 26.144 0 7.771 1.821 16.105 5.263 24.106 3.85 8.942 9.507 17.173 16.813 24.463 7.317 7.303 15.586 12.957 24.575 16.812 8.067 3.457 16.48 5.284 24.332 5.284 7.573 0 18.306-1.7 26.429-9.807 8.067-8.049 9.761-18.658 9.761-26.142 0.001-7.771-1.819-16.108-5.264-24.107zM256.002 178.702c-24.957 0-45.188 20.266-45.188 45.263s20.231 45.26 45.188 45.26 45.186-20.264 45.186-45.26c0-24.999-20.23-45.263-45.186-45.263zM427.636 52.479c-8.124-8.104-18.856-9.806-26.43-9.806-7.852 0-16.265 1.826-24.333 5.284-8.986 3.853-17.254 9.51-24.571 16.812-7.307 7.29-12.963 15.521-16.813 24.463-3.443 7.999-5.263 16.336-5.263 24.106 0 7.483 1.692 18.094 9.76 26.143 8.123 8.104 18.856 9.807 26.43 9.807 7.85 0 16.265-1.827 24.33-5.284 8.989-3.854 17.258-9.509 24.575-16.812 7.305-7.29 12.962-15.521 16.813-24.463 3.442-7.999 5.263-16.335 5.263-24.106-0.001-7.485-1.695-18.093-9.761-26.144z" />
<glyph unicode="&#xe749;" d="M256 512c-141.385 0-256-35.817-256-80v-48l192-192v-160c0-17.673 28.653-32 64-32s64 14.327 64 32v160l192 192v48c0 44.183-114.615 80-256 80zM47.192 442.588c11.972 6.829 28.791 13.31 48.639 18.744 43.972 12.038 100.854 18.668 160.169 18.668s116.197-6.63 160.169-18.668c19.848-5.434 36.667-11.915 48.64-18.744 7.896-4.503 12.162-8.312 14.148-10.588-1.986-2.276-6.253-6.084-14.148-10.588-11.973-6.829-28.792-13.31-48.64-18.744-43.971-12.038-100.854-18.668-160.169-18.668s-116.197 6.63-160.169 18.668c-19.848 5.434-36.667 11.915-48.639 18.744-7.896 4.504-12.162 8.312-14.149 10.588 1.987 2.276 6.253 6.084 14.149 10.588z" />
<glyph unicode="&#xe770;" d="M0.403 77.168c-0.122 1.266-0.226 2.535-0.292 3.815 0.065-1.28 0.17-2.549 0.292-3.815zM117.954 229.426c46.005-1.369 76.867 46.349 68.931 106.599-7.947 60.24-51.698 108.584-97.704 109.961-46.013 1.365-76.87-44.741-68.926-105 7.941-60.234 51.676-110.187 97.699-111.56zM512 384v42.655c0 46.94-38.391 85.345-85.329 85.345h-341.328c-46.138 0-84.006-37.116-85.282-82.963 29.181 25.693 69.662 47.158 111.437 47.158 44.652 0 178.622 0 178.622 0l-39.974-33.809h-56.634c37.565-14.402 57.578-58.062 57.578-102.861 0-37.624-20.905-69.977-50.444-92.984-28.822-22.451-34.286-31.854-34.286-50.939 0-16.289 30.873-44 47.016-55.394 47.191-33.269 62.458-64.156 62.458-115.728 0-8.214-1.021-16.415-3.033-24.48h153.871c46.937 0 85.328 38.375 85.328 85.345v266.654h-96v-95.999h-32v96h-95.999v32h95.999v96h32v-96h96zM92.943 129.032c10.807 0 20.711 0.295 30.968 0.295-13.573 13.167-24.313 29.3-24.313 49.19 0 11.804 3.782 23.168 9.067 33.26-5.391-0.385-10.895-0.497-16.563-0.497-37.178 0-68.753 12.038-92.102 31.927v-33.621l0.003-100.865c26.72 12.687 58.444 20.311 92.94 20.311zM1.71 68.371c-0.556 2.729-0.983 5.503-1.271 8.317 0.287-2.814 0.715-5.588 1.271-8.317zM227.725 35.577c-7.529 29.403-34.227 43.982-71.444 69.784-13.536 4.366-28.447 6.937-44.447 7.104-44.809 0.482-86.554-17.471-110.108-44.186 7.96-38.853 42.517-68.279 83.617-68.279h143.222c0.908 5.564 1.348 11.316 1.348 17.216 0 6.267-0.767 12.396-2.188 18.361z" />
<glyph unicode="&#xe774;" d="M426.672 512h-341.33c-46.936 0-85.342-38.407-85.342-85.344v-341.313c0-46.969 38.406-85.343 85.342-85.343l341.33 0.001c46.938 0 85.328 38.373 85.328 85.344v341.311c0 46.937-38.391 85.344-85.328 85.344zM435.296 256h-83.296v-224h-96v224h-46.263v73.282h46.263v47.593c0 64.671 27.896 103.125 103.935 103.125h87.622v-79.285h-71.565c-21.241 0.035-23.876-11.076-23.876-31.756l-0.116-39.677h96l-12.704-73.282z" />
<glyph unicode="&#xe777;" d="M512 414.791c-18.838-8.354-39.082-14.001-60.33-16.54 21.686 13 38.343 33.585 46.186 58.115-20.298-12.039-42.778-20.78-66.705-25.49-19.16 20.415-46.461 33.17-76.673 33.17-58.011 0-105.044-47.029-105.044-105.039 0-8.233 0.929-16.25 2.72-23.939-87.3 4.382-164.701 46.2-216.509 109.753-9.042-15.514-14.223-33.558-14.223-52.809 0-36.444 18.544-68.596 46.73-87.433-17.219 0.546-33.416 5.271-47.577 13.139-0.010-0.438-0.010-0.878-0.010-1.321 0-50.894 36.209-93.348 84.261-103-8.813-2.4-18.094-3.686-27.674-3.686-6.769 0-13.349 0.66-19.764 1.886 13.368-41.73 52.16-72.103 98.126-72.948-35.95-28.175-81.243-44.967-130.458-44.967-8.479 0-16.84 0.497-25.058 1.47 46.486-29.805 101.701-47.197 161.021-47.197 193.211 0 298.868 160.062 298.868 298.872 0 4.554-0.103 9.084-0.305 13.59 20.528 14.81 38.336 33.31 52.418 54.374z" />
<glyph unicode="&#xe77b;" d="M426.67 512h-341.327c-46.938 0-85.343-38.406-85.343-85.344v-341.314c0-46.967 38.406-85.342 85.344-85.342h341.326c46.938 0 85.33 38.374 85.33 85.342v341.314c0 46.938-38.392 85.344-85.33 85.344zM139.472 96.376c-23.985 0-43.472 19.346-43.472 43.314 0 23.842 19.486 43.406 43.472 43.406 24.079 0 43.53-19.564 43.53-43.406-0.001-23.968-19.452-43.314-43.53-43.314zM248.734 96.002c0 40.905-15.904 79.409-44.73 108.222-28.857 28.875-67.188 44.813-107.952 44.813v62.593c118.826 0 215.563-96.721 215.563-215.627l-62.881-0.001zM359.814 96.002c0 145.531-118.329 263.97-263.688 263.97v62.624c180.001 0 326.473-146.562 326.473-326.596l-62.785 0.002z" />
<glyph unicode="&#xe77d;" d="M416 448h-320c-52.8 0-96-43.2-96-96v-192c0-52.8 43.2-96 96-96h320c52.8 0 96 43.2 96 96v192c0 52.8-43.2 96-96 96zM192 128v256l160-128-160-128z" />
<glyph unicode="&#xe7a0;" d="M395.749 239.954c-0.647 64.841 52.879 95.938 55.271 97.483-30.076 44.010-76.925 50.039-93.621 50.736-39.871 4.037-77.798-23.474-98.033-23.474-20.184 0-51.409 22.877-84.476 22.276-43.458-0.646-83.529-25.269-105.906-64.19-45.152-78.349-11.563-194.42 32.445-257.963 21.504-31.102 47.146-66.038 80.813-64.79 32.421 1.294 44.681 20.979 83.878 20.979s50.214-20.979 84.525-20.335c34.887 0.648 56.991 31.699 78.346 62.898 24.695 36.084 34.863 71.019 35.462 72.813-0.774 0.353-68.030 26.118-68.704 103.567zM331.281 430.239c17.869 21.679 29.93 51.756 26.64 81.761-25.739-1.048-56.939-17.145-75.405-38.775-16.571-19.188-31.074-49.813-27.187-79.218 28.733-2.242 58.064 14.602 75.952 36.232z" />
<glyph unicode="&#xe7a2;" d="M432 352c-17.6 0-32-14.4-32-32v-128c0-17.6 14.4-32 32-32s32 14.4 32 32v128c0 17.6-14.4 32-32 32zM48 352c-17.6 0-32-14.4-32-32v-128c0-17.6 14.4-32 32-32s32 14.4 32 32v128c0 17.6-14.401 32-32 32zM96 144c0-26.51 21.49-48 48-48h16v-64c0-17.6 14.4-32 32-32s32 14.4 32 32v64h32v-64c0-17.6 14.401-32 32-32s32 14.4 32 32v64h16c26.51 0 48 21.49 48 48v176h-288v-176zM299.299 467.253l20.252 38.903c1.016 1.951 0.25 4.379-1.701 5.395s-4.379 0.25-5.395-1.701l-20.559-39.493c-16.099 6.224-33.597 9.643-51.896 9.643-18.298 0-35.796-3.419-51.898-9.643l-20.558 39.492c-1.016 1.951-3.443 2.717-5.395 1.701s-2.717-3.443-1.701-5.395l20.25-38.904c-45.315-20.509-78.12-63.792-83.81-115.252h286.22c-5.688 51.462-38.493 94.744-83.809 115.254zM176 376.8c-12.813 0-23.2 10.387-23.2 23.2s10.387 23.2 23.2 23.2 23.2-10.387 23.2-23.2c-0.001-12.813-10.387-23.2-23.2-23.2zM304 376.8c-12.813 0-23.201 10.387-23.201 23.2s10.389 23.2 23.201 23.2 23.199-10.387 23.199-23.2c0-12.813-10.386-23.2-23.199-23.2z" />
<glyph unicode="&#xe7a4;" d="M0.175 256l-0.175 156.037 192 26.072v-182.109zM224 442.759l255.936 37.241v-224h-255.936zM479.999 224l-0.063-224-255.936 36.008v187.992zM192 40.082l-191.844 26.297-0.010 157.621h191.854z" />
<glyph unicode="&#xe7a7;" d="M487.655 223.031c1.406 10.4 2.215 20.973 2.215 31.736 0 129.155-105.271 233.872-235.103 233.872-12.904 0-25.555-1.060-37.866-3.080-22.072 14.384-48.342 22.767-76.612 22.767-77.523 0-140.289-62.808-140.289-140.306 0-28.198 8.299-54.394 22.59-76.389-1.925-12.017-2.909-24.323-2.909-36.859 0-129.176 105.217-233.882 235.085-233.882 14.657 0 28.927 1.427 42.796 3.933 21.55-13.369 46.934-21.148 74.146-21.148 77.502-0.001 140.292 62.823 140.292 140.313-0.003 29.293-8.96 56.528-24.345 79.043zM276.74 82.404c-74.705-3.892-109.664 12.637-141.689 42.691-35.765 33.567-21.398 71.854 7.74 73.801 29.122 1.944 46.607-33.013 62.15-42.736 15.524-9.688 74.594-31.76 105.794 3.908 33.976 38.828-22.594 58.92-64.059 65.002-59.203 8.766-133.95 40.792-128.135 103.907 5.816 63.074 53.582 95.414 103.85 99.976 64.077 5.817 105.791-9.707 138.785-37.86 38.15-32.529 17.508-68.894-6.799-71.82-24.212-2.909-51.404 53.504-104.791 54.352-55.027 0.864-92.217-57.261-24.286-73.784 67.966-16.505 140.75-23.286 166.961-85.417 26.229-62.137-40.754-128.125-115.521-132.020z" />
<glyph unicode="&#xe7a9;" d="M426 512h-340c-47.3 0-86-38.7-86-86v-340c0-47.3 38.7-86 86-86h340c47.3 0 86 38.7 86 86v340c0 47.3-38.7 86-86 86zM192 96h-64v224h64v-224zM160 352c-17.673 0-32 14.327-32 32s14.327 32 32 32 32-14.327 32-32-14.327-32-32-32zM416 96h-64v128c0 17.673-14.327 32-32 32s-32-14.327-32-32v-128h-64v224h64v-39.736c13.199 18.132 33.376 39.736 56 39.736 39.765 0 72-35.817 72-80v-144z" />
<glyph unicode="&#xe7c7;" d="M129.139 288.729l-73.266 126.901c46.909 58.732 119.117 96.37 200.127 96.37 93.716 0 175.655-50.368 220.266-125.5h-208.885c-3.752 0.325-7.546 0.5-11.381 0.5-60.937 0-112.289-41.822-126.861-98.271zM347.653 349.5h146.73c11.37-28.965 17.617-60.502 17.617-93.5 0-140.413-113.050-254.402-253.093-255.963l104.697 181.339c14.74 21.189 23.396 46.913 23.396 74.624 0 36.585-15.082 69.71-39.347 93.5zM163 256c0 51.28 41.72 93 93 93s93-41.72 93-93c0-51.28-41.72-93-93-93s-93 41.72-93 93zM291.091 129.779l-73.289-126.939c-123.266 18.442-217.802 124.758-217.802 253.16 0 45.609 11.942 88.423 32.848 125.512l104.515-181.027c20.934-44.556 66.238-75.485 118.637-75.485 12.15 0 23.918 1.67 35.091 4.779z" />
<glyph unicode="&#xe7c8;" d="M511.263 344.93l-5.93-38.040c0 0-8.477 70.428-18.866 96.757-15.923 40.344-23.007 40.020-23.054 39.961 10.665-27.102 8.731-41.662 8.731-41.662s-18.896 51.499-68.856 67.884c-55.343 18.141-85.285 13.182-88.744 12.243-0.525 0.004-1.032 0.005-1.515 0.005 0.409-0.031 0.806-0.073 1.213-0.106-0.017-0.010-0.045-0.021-0.041-0.026 0.225-0.274 61.153-10.651 71.958-25.498 0 0-25.88 0-51.636-7.421-1.164-0.333 94.762-11.982 114.373-107.837 0 0-10.515 21.938-23.52 25.664 8.553-26.018 6.357-75.388-1.788-99.925-1.048-3.156-2.12 13.641-18.164 20.875 5.14-36.823-0.308-95.228-25.854-111.316-1.991-1.252 16.015 57.655 3.621 34.881-71.354-109.401-155.702-50.486-193.624-24.555 19.433-4.231 56.327 0.659 72.657 12.806 0.021 0.015 0.039 0.028 0.059 0.043 17.734 12.126 28.236 20.982 37.667 18.886 9.437-2.107 15.719 7.363 8.39 15.765-7.338 8.419-25.157 19.989-49.262 13.683-17-4.452-38.067-23.261-70.224-4.216-24.682 14.625-27.006 26.773-27.225 35.188 0.609 2.983 1.377 5.768 2.288 8.312 2.841 7.935 11.456 10.329 16.247 12.219 8.128-1.396 15.131-3.931 22.484-7.703 0.095 2.447 0.126 5.695-0.009 9.38 0.705 1.401 0.269 5.626-0.861 10.79-0.651 5.154-1.71 10.487-3.376 15.346 0.006 0.001 0.010 0.005 0.015 0.007 0.028 0.009 0.054 0.020 0.078 0.035 0.039 0.022 0.073 0.056 0.104 0.095 0.006 0.010 0.015 0.017 0.022 0.026 0.041 0.062 0.077 0.136 0.099 0.233 0.51 2.309 6.011 6.762 12.859 11.55 6.136 4.29 13.351 8.848 19.034 12.376 5.030 3.124 8.86 5.441 9.673 6.049 0.309 0.233 0.679 0.506 1.082 0.818 0.075 0.058 0.15 0.116 0.227 0.177 0.047 0.037 0.095 0.074 0.143 0.113 2.705 2.154 6.742 6.224 7.589 14.789 0.002 0.021 0.005 0.040 0.006 0.061 0.025 0.252 0.046 0.507 0.065 0.767 0.014 0.181 0.025 0.363 0.036 0.548 0.007 0.142 0.016 0.283 0.022 0.428 0.015 0.337 0.025 0.682 0.030 1.032 0 0.020 0.001 0.038 0.002 0.058 0.011 0.829-0.003 1.693-0.052 2.601-0.027 0.507-0.063 0.965-0.149 1.381-0.004 0.022-0.009 0.046-0.014 0.068-0.009 0.041-0.018 0.082-0.029 0.122-0.018 0.073-0.038 0.146-0.061 0.215-0.003 0.009-0.005 0.016-0.008 0.023-0.026 0.080-0.056 0.157-0.087 0.232-0.002 0.003-0.002 0.005-0.003 0.008-0.877 2.054-4.16 2.829-17.721 3.059-0.013 0.001-0.025 0.001-0.038 0.001v0c-5.533 0.094-12.769 0.097-22.251 0.059-16.625-0.067-25.814 16.252-28.747 22.566 4.020 22.23 15.638 38.071 34.725 48.813 0.361 0.203 0.29 0.371-0.137 0.489 3.732 2.257-45.123 0.062-67.593-28.518-19.944 4.957-37.327 4.623-52.308 1.107-2.877 0.081-6.462 0.44-10.717 1.326-9.962 9.028-24.224 25.701-24.988 45.604 0 0-0.046-0.036-0.126-0.102-0.010 0.191-0.028 0.38-0.036 0.571 0 0-30.358-23.332-25.814-86.941-0.011-1.018-0.032-1.993-0.060-2.937-8.216-11.144-12.293-20.51-12.596-22.578-7.28-14.822-14.667-37.127-20.678-70.99 0 0 4.204 13.333 12.642 28.433-6.206-19.011-11.082-48.578-8.218-92.928 0 0 0.757 9.833 3.437 23.997 2.093-27.505 11.259-61.462 34.429-101.394 44.474-76.66 112.835-115.37 188.396-121.308 13.418-1.106 27.025-1.132 40.712-0.093 1.258 0.089 2.516 0.182 3.775 0.287 15.482 1.087 31.067 3.426 46.619 7.183 212.586 51.399 189.471 308.099 189.471 308.099z" />
<glyph unicode="&#xe7c9;" d="M367.101 197.585h118.025c0.91 8.185 1.274 16.549 1.274 25.098 0 40.112-10.767 77.734-29.562 110.133 19.44 51.654 18.746 95.494-7.278 121.695-24.748 24.64-91.145 20.64-166.206-12.599-5.552 0.42-11.159 0.636-16.819 0.636-103.024 0-189.463-70.897-213.354-166.425 32.319 41.377 66.319 71.377 111.739 93.224-4.13-3.87-28.227-27.826-32.28-31.882-119.774-119.739-157.545-276.153-116.903-316.802 30.893-30.887 86.879-25.671 151.188 5.824 29.903-15.229 63.75-23.815 99.609-23.815 96.567 0 178.402 62.158 208.045 148.724h-118.934c-16.367-30.191-48.374-50.74-85.109-50.74s-68.742 20.549-85.108 50.74c-7.275 13.637-11.457 29.277-11.457 45.828v0.361h193.13zM174.151 255.598c2.728 48.555 43.1 87.292 92.383 87.292s89.656-38.736 92.383-87.292h-184.766zM448.483 430.096c16.763-16.94 16.344-48.107 2.006-87.011-24.568 37.454-60.259 66.968-102.396 83.82 45.053 19.319 81.703 21.878 100.39 3.191zM46.741 28.372c-21.391 21.398-14.942 66.309 12.615 120.416 17.154-48.135 50.578-88.545 93.668-114.577-47.715-21.659-86.768-25.337-106.283-5.839z" />
<glyph unicode="&#xe7ca;" d="M255.023 512c-139.862 0-240.374-101.448-240.374-253.612 0-135.409 97.751-258.388 240.392-258.388 144.039 0 242.31 122.943 242.31 258.388 0 153.38-103.723 253.612-242.328 253.612zM344.179 262.729c-0.034-84.676-4.549-205.241-89.138-205.241v-0.017c-83.392 0-86.716 120.633-86.716 205.154 0 99.19 9.28 194.284 86.716 194.284 77.437 0 89.138-96.292 89.138-194.18z" />
<glyph unicode="&#xe7cb;" d="M256 480c-12.032 0-23.854-0.896-35.412-2.606-0.15 0.391-0.312 0.774-0.491 1.148 6.413 5.001 9.775 11.915 8.317 18.776-1.867 8.782-11.197 14.682-23.217 14.682-2.59 0-5.229-0.281-7.84-0.836-15.084-3.207-25.073-14.311-22.741-25.281 1.417-6.669 7.146-11.669 15.082-13.692-0.016-0.486-0.008-0.975 0.021-1.467-100.311-28.765-173.719-121.169-173.719-230.724 0-132.549 107.452-240 240-240s240 107.451 240 240c0 132.548-107.451 240-240 240zM182.441 487.546c-1.353 6.363 6.24 13.595 16.579 15.792 2.066 0.439 4.145 0.662 6.177 0.662 8.018 0 14.347-3.432 15.392-8.345 0.798-3.755-1.535-7.805-5.693-10.952-3.517 2.483-8.008 3.563-12.55 2.598-4.522-0.961-8.174-3.754-10.379-7.428-5.092 1.225-8.754 4.042-9.526 7.673zM384.693 111.307c-21.984-21.984-48.605-37.639-77.655-46.077l-21.198 34.384-5.373-39.979c-8.045-1.076-16.213-1.635-24.467-1.635-48.614 0-94.318 18.932-128.693 53.307-21.984 21.983-37.639 48.605-46.077 77.654l34.384 21.199-39.98 5.373c-1.075 8.045-1.634 16.213-1.634 24.467 0 48.614 18.931 94.318 53.307 128.693 21.984 21.984 48.606 37.639 77.655 46.078l21.198-34.385 5.374 39.98c8.044 1.075 16.212 1.634 24.466 1.634 48.614 0 94.318-18.931 128.693-53.307 21.984-21.984 37.639-48.606 46.077-77.655l-34.385-21.199 39.98-5.373c1.076-8.044 1.635-16.212 1.635-24.466 0-48.614-18.932-94.318-53.307-128.693zM380.451 364.451l-98.489-74.852c-7.322 3.829-15.438 6.031-23.708 6.363l-25.54 53.59-1.534-59.332c-6.642-3.268-12.552-7.832-17.438-13.475l-31.544 11.182 23.046-24.269c-3.167-6.759-4.933-14.015-5.217-21.412l-53.579-25.533 59.369-1.534c0.19-0.384 0.387-0.763 0.585-1.141l-74.852-98.49 98.489 74.852c7.322-3.828 15.437-6.030 23.708-6.362l25.54-53.591 1.533 59.332c6.643 3.269 12.553 7.832 17.439 13.476l31.545-11.184-23.047 24.27c3.168 6.76 4.934 14.015 5.218 21.412l53.578 25.533-59.368 1.535c-0.189 0.383-0.387 0.762-0.585 1.14l74.851 98.49zM256.051 289.733v0zM246.021 286.951c3.363 0.715 6.722 1.059 10.028 1.059 2.072 0 4.125-0.135 6.147-0.398l0.046-0.016-0.005 0.011c4.366-0.572 8.588-1.75 12.566-3.448l-35.773-27.188-27.19-35.776c-1.188 2.797-2.135 5.742-2.79 8.826-5.513 25.93 11.040 51.418 36.971 56.93zM281.060 199.058v0 0c-4.528-2.772-9.591-4.842-15.080-6.009-3.363-0.715-6.722-1.059-10.027-1.059-2.075 0-4.129 0.136-6.154 0.399l-0.034 0.005c-4.367 0.571-8.587 1.75-12.566 3.447l35.772 27.188 27.19 35.777c1.188-2.797 2.135-5.743 2.79-8.827 4.345-20.441-5.028-40.6-21.891-50.921z" />
<glyph unicode="&#xe7cd;" d="M73.105 158.967v240.377c0 25.137 9.427 47.133 26.709 64.416 18.853 18.853 39.277 28.28 65.986 28.28h218.382c25.137 0 47.133-9.426 64.416-28.28 17.282-17.282 26.709-39.278 26.709-64.416v-240.377c0-15.711-3.142-31.421-10.998-45.562-7.856-12.57-17.282-23.567-29.849-32.993v-42.419c0-6.284-3.142-14.139-7.856-18.853-6.284-6.284-12.57-9.426-20.424-9.426-7.856 0-14.139 3.142-18.853 9.426-6.284 4.713-9.426 12.57-9.426 18.853v28.28h-204.242v-28.28c0-6.284-3.142-14.139-9.427-18.853-4.713-6.284-10.998-9.426-18.853-9.426s-14.139 3.142-20.424 9.426c-4.713 4.713-7.856 12.57-7.856 18.853v40.849c-14.139 9.426-23.567 20.424-31.422 34.563s-12.57 28.28-12.57 45.562zM129.664 311.363h289.080v87.981c0 9.426-3.142 18.853-9.426 25.137-6.284 7.856-15.711 10.998-25.137 10.998h-218.382c-10.998 0-18.853-3.142-25.137-10.998-7.856-6.284-10.998-15.71-10.998-25.137zM156.373 191.96c0-7.856 3.142-14.139 9.427-21.995 6.284-6.284 12.57-9.426 20.424-9.426 7.856 0 15.71 3.142 21.995 9.426 6.284 7.856 9.427 14.139 9.427 21.995 0 6.284-3.142 14.139-9.427 20.424-6.284 7.856-14.139 10.998-21.995 10.998s-14.139-3.142-20.424-10.998c-6.284-6.284-9.427-14.139-9.427-20.424zM335.478 191.96c0-7.856 3.142-14.139 9.426-21.995 6.284-6.284 12.57-9.426 20.424-9.426 7.856 0 14.139 3.142 20.424 9.426 6.284 7.856 10.998 14.139 10.998 21.995 0 6.284-4.713 14.139-10.998 20.424-6.284 7.856-12.57 10.998-20.424 10.998-7.856 0-14.139-3.142-20.424-10.998-6.284-6.284-9.426-14.139-9.426-20.424z" />
<glyph unicode="&#xe7ce;" d="M73.729 24.795c0 5.523 2.761 9.666 6.904 13.808l53.853 60.757c-16.57 5.523-30.378 15.19-41.425 28.998-9.666 15.19-15.189 31.76-15.189 49.71v183.653c0 22.093 6.904 41.425 23.474 56.615 15.189 16.57 34.521 24.855 56.615 24.855h193.318c22.094 0 40.044-8.285 56.615-24.855 15.19-15.19 23.474-34.521 23.474-56.615v-183.653c0-17.951-5.523-33.14-15.19-48.33-9.666-13.808-23.474-23.474-38.663-28.998l55.233-62.138c2.762-4.142 5.523-8.285 5.523-13.808 0-4.142-2.762-8.285-5.523-11.048-4.142-4.142-8.285-5.523-12.427-5.523s-8.285 1.381-12.427 4.142l-74.565 84.231h-154.655l-74.566-84.231c-4.142-2.762-8.285-4.142-12.427-4.142s-8.285 1.381-12.427 5.523c-2.761 2.762-5.523 6.904-5.523 11.048zM126.201 320.294h107.706v73.185h-75.946c-8.285 0-16.57-2.762-22.094-9.666-5.523-5.523-9.666-13.808-9.666-22.094zM149.675 197.399c0-5.523 2.762-12.427 8.285-17.951s12.427-9.666 19.332-9.666c5.523 0 12.427 4.142 17.951 9.666 6.905 5.523 9.666 12.427 9.666 17.951 0 6.904-2.762 13.808-9.666 19.332-5.523 5.523-12.427 8.285-17.951 8.285-6.905 0-13.808-2.762-19.332-8.285s-8.285-12.427-8.285-19.332zM155.199 55.173c0 2.762 1.381 5.523 2.762 8.285 2.762 1.381 5.523 2.762 8.285 2.762h172.605c2.762 0 5.523-1.381 8.285-2.762 1.381-2.762 2.762-5.523 2.762-8.285s-1.381-4.142-2.762-6.904c-2.762-1.381-5.523-2.762-8.285-2.762h-172.606c-2.762 0-5.523 1.381-8.285 2.762-1.381 2.762-2.762 4.142-2.762 6.904zM202.147 480.471c0 6.904 2.762 12.427 8.285 17.951 5.523 6.904 12.427 9.666 19.332 9.666 5.523 0 12.427-2.762 17.951-9.666 5.523-5.523 8.285-11.048 8.285-17.951 0-5.523-2.762-12.427-8.285-17.951-5.523-6.904-12.427-9.666-17.951-9.666-6.905 0-13.808 2.762-19.332 9.666-5.523 5.523-8.285 12.427-8.285 17.951zM268.427 479.090c0 6.905 2.762 12.427 8.285 19.332 5.523 5.523 11.048 9.666 17.951 9.666s12.427-2.761 19.332-9.666c5.523-5.523 8.285-11.047 8.285-17.951 0-5.523-2.762-12.427-8.285-17.951-6.904-6.904-12.427-9.666-19.332-9.666s-12.427 2.762-17.951 8.285c-5.523 5.523-8.285 11.048-8.285 17.951zM283.616 320.294h98.040v41.426c0 8.285-2.762 16.57-9.666 22.093-5.523 6.905-12.427 9.666-20.712 9.666h-67.661zM307.091 197.399c0-5.523 2.762-12.427 8.285-17.951s12.427-9.666 17.951-9.666c6.904 0 13.808 4.142 19.332 9.666s8.285 12.427 8.285 17.951c0 6.904-2.762 13.808-8.285 19.332s-12.427 8.285-19.332 8.285c-5.523 0-12.427-2.762-17.951-8.285s-8.285-12.427-8.285-19.332z" />
<glyph unicode="&#xe7cf;" d="M41.495 179.753v63.681c0 16.758 3.352 31.839 11.731 46.923 6.703 13.408 16.758 25.137 30.166 35.192l21.785 53.626c8.38 26.814 18.434 46.923 28.489 58.655 15.082 20.11 35.192 30.166 58.655 30.166h129.040c10.055 0 18.434-1.675 26.813-5.027s15.082-8.379 20.11-11.731c5.027-3.351 10.055-10.055 15.082-18.434s8.38-13.408 11.731-18.434c1.675-3.352 3.351-10.055 8.38-18.434 3.351-10.055 5.027-15.082 5.027-15.082l26.813-60.329c23.462-20.11 35.192-45.247 35.192-77.088v-63.682c0-16.758-5.027-33.517-11.731-48.599-8.38-13.408-18.434-25.137-31.839-35.192v-45.247c0-6.702-3.351-15.082-10.055-20.11-5.027-6.702-13.408-10.055-20.11-10.055-8.38 0-15.082 3.351-21.786 10.055-5.027 5.027-8.38 13.408-8.38 20.11v30.166h-217.857v-30.166c0-6.702-3.351-15.082-10.055-20.11-5.027-6.702-11.731-10.055-20.11-10.055s-15.082 3.351-21.785 10.055c-5.027 5.027-8.38 13.408-8.38 20.11v45.247c-15.082 8.38-25.138 20.11-33.517 35.192s-13.407 30.166-13.407 48.599zM128.638 214.945c0-8.38 3.351-15.082 11.731-23.462 6.702-6.702 13.407-10.055 21.785-10.055 8.38 0 16.758 3.351 23.462 10.055 6.702 8.38 10.055 15.082 10.055 23.462 0 6.702-3.351 15.082-10.055 21.786-6.702 8.38-15.082 11.731-23.462 11.731s-15.082-3.351-21.786-11.731c-8.38-6.702-11.731-15.082-11.731-21.786zM155.451 342.308h204.452l-6.702 15.082c-8.38 18.434-13.408 31.839-18.434 38.544-5.027 8.38-10.055 11.731-13.408 11.731h-129.040c-8.38 0-20.11-16.758-31.84-48.599zM319.682 214.945c0-8.38 3.351-15.082 10.055-23.462 8.38-6.702 15.082-10.055 23.462-10.055s15.082 3.351 21.786 10.055c6.702 8.38 11.731 15.082 11.731 23.462 0 6.702-5.027 15.082-11.731 21.786-6.702 8.38-13.408 11.731-21.786 11.731-8.38 0-15.082-3.351-23.462-11.731-6.702-6.702-10.055-15.082-10.055-21.786z" />
<glyph unicode="&#xe7d1;" d="M122.458 213.002c0 0 1.571 3.142 3.142 9.426l37.707 124.117c3.142 7.856 6.284 12.57 12.57 15.71l50.275 26.709c3.142 1.571 7.856 1.571 14.139 1.571 26.709 0 40.849-9.426 40.849-28.28v-3.142l-12.57-95.837 83.267-73.841c4.713-3.142 7.856-9.426 9.426-15.711l25.137-109.976c0-1.571 0-3.142 0-6.284 0-7.856-1.571-12.57-7.856-17.282-4.713-4.713-10.998-6.284-17.282-6.284-12.57 0-20.424 6.284-23.567 18.853l-28.28 100.55-87.981 75.413c-6.284 6.284-9.427 12.57-9.427 20.424v1.571l9.427 76.983c-1.571 0-4.713 0-7.856-1.571-4.713-1.571-6.284-3.142-7.856-3.142l-40.849-103.691c-3.142-17.282-10.998-25.137-20.424-25.137-6.284 0-12.57 1.571-15.71 4.713-4.713 4.713-6.284 9.426-6.284 14.139zM130.313 55.894c0 4.713 0 9.426 3.142 10.998l34.563 65.986 17.282 50.275c3.142 6.284 6.284 10.998 10.998 14.139s9.427 4.713 15.71 4.713c7.856 0 14.139-1.571 20.424-7.856 4.713-4.713 7.856-12.57 7.856-20.424 0-1.571 0-3.142-1.571-7.856l-18.853-53.418c0-1.571 0-1.571 0-3.142-1.571-1.571-1.571-3.142-1.571-4.713l-45.561-61.272c-4.713-7.856-10.998-10.998-20.424-10.998-6.284 0-12.57 1.571-15.71 6.284-4.713 4.713-6.284 10.998-6.284 17.282zM245.002 443.953c0 12.57 3.142 21.995 12.57 29.85 7.856 7.856 18.853 12.57 29.849 12.57 12.57 0 23.567-4.713 31.421-12.57 7.856-7.856 10.998-17.282 10.998-29.85 0-10.998-4.713-21.995-12.57-29.849-9.426-9.426-18.853-14.139-29.849-14.139-12.57 0-21.995 4.713-29.849 14.139-9.427 9.426-12.57 18.853-12.57 29.849zM290.563 308.839c0 6.284 3.142 12.57 9.426 18.853 4.713 4.713 10.998 7.856 17.282 7.856 7.856 0 12.57-3.142 18.853-9.427l45.562-48.703c4.713-4.713 7.856-9.427 7.856-15.711s-3.142-10.998-7.856-15.71c-4.713-4.713-9.426-7.856-15.711-7.856s-10.998 3.142-15.711 7.856l-53.418 47.133c-3.142 4.713-6.284 10.998-6.284 15.711z" />
<glyph unicode="&#xe7d3;" d="M355.251 512h-198.502c-28.749 0-52.249-23.501-52.249-52.25v-407.501c0-28.723 23.501-52.25 52.249-52.25h198.502c28.749 0 52.25 23.526 52.25 52.25v407.501c0 28.749-23.501 52.25-52.25 52.25zM256 20.889c-20.173 0-36.557 11.699-36.557 26.137s16.384 26.137 36.557 26.137c20.199 0 36.557-11.699 36.557-26.137s-16.358-26.137-36.557-26.137zM365.696 99.277h-219.417v344.807h219.417v-344.807z" />
<glyph unicode="&#xe7d5;" d="M217.6 486.4h-23.014c-5.657 0-10.266-4.608-10.266-10.24v-97.28h-90.522c-4.224 0-9.472-0.973-14.489-2.509-5.069-1.561-9.907-3.712-13.363-6.067l-60.8-41.728c-3.43-2.355-5.146-5.453-5.146-8.576s1.715-6.221 5.146-8.576l60.8-41.728c3.456-2.355 8.294-4.506 13.363-6.067 5.017-1.536 10.266-2.509 14.489-2.509h90.522v-225.28c0-5.658 4.608-10.24 10.24-10.24h23.040c5.657 0 10.24 4.608 10.24 10.24v440.32c0 5.632-4.583 10.24-10.24 10.24zM506.854 379.75l-60.8 41.728c-3.43 2.355-8.269 4.505-13.337 6.067-5.043 1.561-10.291 2.534-14.515 2.534h-175.001l20.506-117.76h154.496c4.224 0 9.472 0.973 14.515 2.509s9.907 3.712 13.337 6.042l60.8 41.728c3.456 2.381 5.146 5.478 5.146 8.601s-1.69 6.221-5.146 8.55z" />
<glyph unicode="&#xe7d6;" d="M40.806 376.678c12.493-6.733 185.575-99.686 192.025-103.142 6.425-3.456 14.771-5.12 23.168-5.12 8.423 0 16.768 1.664 23.193 5.146 6.451 3.456 179.507 96.409 192 103.142 12.519 6.707 24.346 27.776 1.382 27.776h-433.127c-22.963 0-11.162-21.069 1.357-27.802zM476.493 325.478c-14.208-7.424-188.595-98.585-197.299-103.142s-14.771-5.146-23.193-5.146c-8.397 0-14.464 0.589-23.168 5.146s-183.117 95.744-197.299 103.142c-10.009 5.223-9.933-0.896-9.933-5.607s0-187.776 0-187.776c0-10.752 14.31-24.576 25.395-24.576h410.035c11.111 0 25.37 13.824 25.37 24.55 0 0 0 183.065 0 187.776 0 4.736 0.103 10.855-9.907 5.632z" />
<glyph unicode="&#xe7d7;" d="M478.567 444.544c-8.781-3.097-443.418-156.237-451.968-159.257-7.27-2.56-8.909-8.832-0.256-12.262 10.266-4.121 97.177-38.938 97.177-38.938h-0.025l57.626-23.091c0 0 277.427 203.75 281.19 206.49 3.763 2.765 8.141-2.432 5.401-5.402-2.739-2.995-201.498-217.958-201.498-217.958-0.026 0-0.026 0-0.026 0l-11.571-12.902 15.335-8.243c0 0 119.040-64.077 127.514-68.659 7.424-3.993 17.101-0.666 19.251 8.576 2.534 10.906 72.832 313.907 74.394 320.615 2.048 8.781-3.738 14.131-12.544 11.034zM180.608 72.653c0-6.323 3.559-8.064 8.474-3.61 6.4 5.837 72.935 65.536 72.935 65.536l-81.408 42.137v-104.064z" />
<glyph unicode="&#xe7df;" d="M379.392 142.131c-63.104 22.989-83.277 42.394-83.277 83.942 0 24.935 19.277 16.793 27.725 62.464 3.507 18.944 20.531 0.307 23.808 43.546 0 17.229-9.293 21.529-9.293 21.529s4.736 25.523 6.579 45.133c2.253 24.473-14.131 87.654-101.734 87.654-87.578 0-104.013-63.181-101.709-87.654 1.843-19.61 6.579-45.133 6.579-45.133s-9.319-4.275-9.319-21.529c3.251-43.238 20.275-24.601 23.782-43.546 8.474-45.671 27.75-37.529 27.75-62.464 0-41.549-20.173-60.954-83.277-83.942-63.334-23.040-104.448-46.567-104.448-62.618 0-16.026 0-53.888 0-53.888h481.28c0 0 0 37.863 0 53.888s-41.139 39.552-104.448 62.618z" />
<glyph unicode="&#xe7e0;" d="M512 30.72c0 0-0.998 96.947-6.938 106.983-8.832 14.976-29.337 25.241-67.43 41.165-37.965 15.872-50.125 29.286-50.125 57.933 0 17.229 11.597 11.597 16.691 43.111 2.099 13.082 12.339 0.231 14.31 30.054 0 11.904-5.581 14.874-5.581 14.874s2.816 17.613 3.942 31.155c1.382 16.896-8.525 60.493-61.235 60.493s-62.567-43.623-61.209-60.493c1.101-13.542 3.917-31.155 3.917-31.155s-5.581-2.97-5.581-14.874c1.971-29.849 12.211-16.998 14.336-30.054 5.069-31.514 16.666-25.882 16.666-43.111 0-19.481-5.632-31.923-21.171-42.855 82.944-41.523 94.080-49.997 94.080-87.117v-76.109h115.328zM261.735 164.48c-50.662 21.145-66.816 39.014-66.816 77.235 0 22.938 15.463 15.462 22.246 57.498 2.791 17.434 16.487 0.281 19.072 40.064 0 15.872-7.45 19.814-7.45 19.814s3.789 23.475 5.274 41.549c1.843 22.477-11.367 80.64-81.638 80.64s-83.456-58.137-81.613-80.64c1.485-18.074 5.248-41.549 5.248-41.549s-7.424-3.942-7.424-19.814c2.637-39.808 16.282-22.656 19.097-40.064 6.784-42.035 22.246-34.535 22.246-57.498 0-38.221-16.205-56.089-66.816-77.235-15.437-6.451-43.161-16.461-43.161-40.474v-93.286h355.687c0 0 0 55.168 0 69.913 0 21.939-43.187 42.599-93.952 63.846z" />
<glyph unicode="&#xe7e1;" d="M316.851 142.131c-63.769 22.989-84.147 42.394-84.147 83.942 0 24.935 19.482 16.793 28.032 62.464 3.558 18.944 20.762 0.307 24.013 43.546 0 17.229-9.37 21.529-9.37 21.529s4.787 25.523 6.63 45.133c2.304 24.473-14.285 87.654-102.81 87.654s-105.114-63.181-102.809-87.654c1.869-19.635 6.656-45.133 6.656-45.133s-9.395-4.275-9.395-21.529c3.302-43.238 20.505-24.601 24.013-43.546 8.576-45.671 28.058-37.529 28.058-62.464 0-41.549-20.403-60.954-84.173-83.942-7.68-2.739-25.984-7.040-41.549-13.773v-102.759h409.6c0 0 0 37.863 0 53.888s-28.749 39.577-92.749 62.643zM435.2 281.6v76.8h-51.2v-76.8h-76.8v-51.2h76.8v-76.8h51.2v76.8h76.8v51.2h-76.8z" />
<glyph unicode="&#xe7e2;" d="M460.8 460.8h-409.6c-28.16 0-51.2-23.040-51.2-51.2v-307.2c0-28.16 23.040-51.2 51.2-51.2h409.6c28.185 0 51.2 23.040 51.2 51.2v307.2c0 28.16-23.014 51.2-51.2 51.2zM460.8 102.4h-409.6v307.2h409.6v-307.2zM230.4 202.24h-128v-46.080h128v46.080zM230.4 279.040h-128v-46.080h128v46.080zM230.4 355.84h-128v-46.080h128v46.080zM407.040 192c0 0-43.52 11.366-43.52 33.741 0 21.299 28.185 30.259 28.185 73.779 0 35.328-10.752 56.32-46.106 56.32s-46.080-20.966-46.080-56.32c0-43.52 28.16-52.48 28.16-73.779 0-22.375-43.495-33.741-43.495-33.741-2.586 0-2.586-35.84-2.586-35.84h128c0 0 0 35.84-2.56 35.84z" />
<glyph unicode="&#xe7e3;" d="M384 107.52h-332.8v230.4h66.432c0 0 17.639 22.938 55.552 51.2h-147.584c-14.131 0-25.6-11.469-25.6-25.6v-281.6c0-14.157 11.469-25.6 25.6-25.6h384c14.157 0 25.6 11.443 25.6 25.6v95.897l-51.2-42.112v-28.185zM342.067 285.44v-90.88l169.933 133.146-169.933 127.974v-80.128c-206.387-0.025-206.387-204.032-206.387-204.032 58.419 95.949 94.362 113.92 206.387 113.92z" />
<glyph unicode="&#xe7e4;" d="M256 460.8c-70.707 0-128-57.319-128-128 0-122.214 128-281.6 128-281.6s128 159.386 128 281.6c0 70.681-57.293 128-128 128zM256 262.144c-38.169 0-69.12 30.951-69.12 69.12s30.951 69.12 69.12 69.12 69.12-30.951 69.12-69.12-30.95-69.12-69.12-69.12z" />
<glyph unicode="&#xe7e9;" d="M384 179.2c-17.613 0-33.741-5.965-46.695-15.923l-133.607 80.154c0.64 4.096 1.101 8.295 1.101 12.57 0 4.301-0.461 8.474-1.101 12.57l133.607 80.154c12.954-9.959 29.082-15.923 46.695-15.923 42.394 0 76.8 34.381 76.8 76.8s-34.406 76.8-76.8 76.8-76.8-34.381-76.8-76.8c0-4.275 0.461-8.474 1.127-12.57l-133.607-80.179c-12.953 9.984-29.107 15.949-46.72 15.949-42.419 0-76.8-34.381-76.8-76.8 0-42.394 34.381-76.8 76.8-76.8 17.613 0 33.767 5.965 46.72 15.923l133.607-80.154c-0.666-4.096-1.127-8.269-1.127-12.57 0-42.394 34.406-76.8 76.8-76.8s76.8 34.406 76.8 76.8-34.406 76.8-76.8 76.8z" />
<glyph unicode="&#xe800;" d="M256 307.2c-42.394 0-76.8-34.406-76.8-76.8 0-42.419 34.406-76.8 76.8-76.8 42.419 0 76.8 34.381 76.8 76.8 0 42.394-34.381 76.8-76.8 76.8zM460.8 384h-61.414c-8.448 0-17.562 6.553-20.224 14.567l-15.872 47.641c-2.714 8.038-11.801 14.592-20.25 14.592h-174.080c-8.448 0-17.561-6.554-20.198-14.567l-15.923-47.667c-2.662-8.013-11.751-14.567-20.198-14.567h-61.44c-28.16 0-51.2-23.040-51.2-51.2v-230.4c0-28.16 23.040-51.2 51.2-51.2h409.6c28.185 0 51.2 23.040 51.2 51.2v230.4c0 28.16-23.014 51.2-51.2 51.2zM256 102.4c-70.707 0-128 57.293-128 128 0 70.682 57.293 128 128 128 70.682 0 128-57.318 128-128 0-70.707-57.318-128-128-128zM442.88 297.011c-9.882 0-17.894 8.013-17.894 17.92s8.013 17.92 17.894 17.92c9.907 0 17.92-8.013 17.92-17.92s-8.013-17.92-17.92-17.92z" />
<glyph unicode="&#xe801;" d="M440.909 332.058c-40.525 94.336-105.779 166.169-138.778 152.729-56.038-22.784 33.408-132.198-241.817-244.070-23.782-9.651-29.799-48.333-19.84-71.45 9.933-23.117 42.445-46.131 66.227-36.48 4.096 1.664 19.225 6.528 19.225 6.528 16.973-22.784 34.739-9.267 41.063-23.757 7.577-17.408 24.038-55.219 29.619-68.070 5.632-12.851 18.329-24.781 27.546-21.274 9.165 3.507 40.473 15.437 52.455 19.968s14.848 15.232 11.187 23.654c-3.942 9.063-20.122 11.725-24.729 22.323-4.634 10.599-19.712 44.519-24.038 55.219-5.888 14.541 6.631 26.368 24.832 28.262 125.286 13.056 148.711-64.333 191.36-46.976 32.921 13.466 26.214 109.056-14.31 203.392zM426.803 179.046c-7.322-2.969-56.627 35.891-88.141 109.235-31.488 73.319-27.52 140.339-20.224 143.309 7.322 2.995 55.424-43.93 86.938-117.248 31.462-73.293 28.749-132.327 21.427-135.296z" />
<glyph unicode="&#xe808;" d="M84.531 198.707c11.879-48.154 26.983-69.145 77.363-91.187 50.406-22.016 74.343-46.080 94.106-46.080s42.163 21.043 92.57 43.111c50.406 21.99 36.966 28.749 48.845 76.851l-141.415-68.762-171.469 86.067zM499.481 324.198l-213.12 119.347c-16.691 9.344-44.007 9.344-60.697 0l-213.145-119.347c-16.691-9.344-16.691-24.653 0-33.997l213.12-119.347c16.691-9.344 44.006-9.344 60.698 0l137.779 77.159-149.401 34.995c-5.735-1.433-12.058-2.227-18.714-2.227-26.905 0-48.717 12.979-48.717 28.979s21.811 29.005 48.717 29.005c20.889 0 38.682-7.859 45.594-18.841l158.233-51.917 39.654 22.195c16.691 9.344 16.691 24.653 0 33.997zM434.355 97.997c-1.613-9.805 32.845-26.010 36.121 2.791 14.822 129.817-10.649 167.193-10.649 167.193l-35.712-19.993c0 0.026 30.285-28.8 10.24-149.99z" />
<glyph unicode="&#xe80c;" d="M136.96 3.072h51.2l114.893 204.826h132.147c0 0 76.8 0 76.8 35.815 0 35.84-76.8 35.84-76.8 35.84h-132.147l-114.893 204.8h-51.2l63.693-204.8h-91.827l-57.626 51.226h-51.2l40.986-87.040-40.986-87.065h51.2l57.626 51.226h91.827l-63.693-204.826z" />
<glyph unicode="&#xe80d;" d="M252.851 491.495c-130.048-1.741-234.087-108.57-232.345-238.643 1.741-130.099 108.595-234.087 238.643-232.371 130.073 1.741 234.112 108.595 232.346 238.643-1.741 130.099-108.595 234.112-238.643 232.371zM253.286 460.8c35.072 0.486 68.199-7.936 97.28-23.065l-31.693-52.839c-18.995 9.242-40.32 14.464-62.873 14.464-22.528 0-43.853-5.223-62.848-14.49l-31.667 52.813c27.494 14.336 58.675 22.656 91.802 23.117zM127.129 193.152l-52.787-31.642c-14.336 27.469-22.656 58.649-23.091 91.75-0.486 35.097 7.936 68.224 23.066 97.28l52.813-31.718c-9.267-18.97-14.49-40.269-14.49-62.823 0-22.528 5.222-43.853 14.489-62.848zM258.739 51.226c-35.072-0.486-68.224 7.936-97.28 23.065l31.693 52.839c18.995-9.267 40.32-14.49 62.848-14.49 22.553 0 43.879 5.197 62.848 14.464l31.667-52.787c-27.495-14.31-58.649-22.63-91.776-23.091zM256 143.385c-62.208 0-112.615 50.432-112.615 112.615 0 62.208 50.432 112.64 112.615 112.64 62.233 0 112.64-50.432 112.64-112.64s-50.406-112.615-112.64-112.615zM384.87 193.152c9.267 18.995 14.49 40.32 14.49 62.848 0 22.553-5.223 43.853-14.49 62.848l52.787 31.693c14.336-27.495 22.681-58.65 23.117-91.776 0.461-35.098-7.962-68.224-23.091-97.28l-52.813 31.667z" />
<glyph unicode="&#xe811;" d="M435.2 435.2h-23.040v-51.2h-81.92v51.2h-148.48v-51.2h-81.92v51.2h-23.040c-28.16 0-51.2-23.040-51.2-51.2v-307.2c0-28.16 23.040-51.2 51.2-51.2h358.4c28.16 0 51.2 23.040 51.2 51.2v307.2c0 28.16-23.040 51.2-51.2 51.2zM435.2 76.8h-358.4v204.8h358.4v-204.8zM158.72 486.4h-35.84v-87.040h35.84v87.040zM389.12 486.4h-35.84v-87.040h35.84v87.040z" />
<glyph unicode="&#xe816;" d="M232.96 230.349h46.080v-51.2h232.96c0 0-3.789 114.125-5.12 149.863-1.255 33.945-13.389 54.938-51.2 54.938h-82.125c-12.723 23.987-26.419 49.792-30.618 57.728-8.474 15.974-11.366 19.072-30.208 19.072h-113.459c-18.841 0-21.734-3.098-30.208-19.072-4.198-7.936-17.894-33.741-30.618-57.728h-82.125c-37.811 0-49.792-20.992-51.2-54.938s-5.12-149.863-5.12-149.863h232.96v51.2zM195.84 411.725c5.863 11.059 7.885 13.209 20.889 13.209h78.515c13.056 0 15.053-2.151 20.889-13.209 2.202-4.147 8.141-15.36 14.745-27.75h-149.76c6.579 12.365 12.518 23.577 14.72 27.75zM279.040 102.349h-46.080v51.2h-220.16c0 0 3.2-46.029 5.12-85.043 0.794-16.205 5.555-42.957 46.054-42.957h384.051c40.499 0 45.159 26.777 46.055 42.957 2.227 40.115 5.12 85.043 5.12 85.043h-220.16v-51.2z" />
<glyph unicode="&#xe819;" d="M208.077 158.669c-17.664-30.618-5.786-55.808 18.714-69.939s52.275-11.878 69.939 18.739c17.664 30.592 129.203 303.769 119.501 309.376-9.677 5.606-190.489-227.559-208.154-258.176zM256 353.229c11.213 0 22.144-0.973 32.793-2.765 11.213 14.029 23.783 29.491 35.993 44.211-21.811 6.323-44.825 9.754-68.787 9.754-143.539 0-256-121.037-256-275.558 0-9.523 0.435-19.021 1.254-28.288 1.254-14.080 13.824-24.448 27.776-23.219 14.080 1.28 24.474 13.696 23.219 27.776-0.691 7.757-1.050 15.744-1.050 23.731 0 125.798 89.984 224.358 204.8 224.358zM440.807 321.255c-7.142-19.2-14.695-38.759-21.351-55.68 26.035-37.632 41.344-84.813 41.344-136.704 0-8.115-0.358-16.281-1.075-24.192-1.28-14.080 9.088-26.522 23.168-27.827 0.793-0.077 1.562-0.103 2.355-0.103 13.082 0 24.243 10.010 25.447 23.271 0.87 9.472 1.306 19.175 1.306 28.851 0 75.546-26.931 143.078-71.193 192.384z" />
<glyph unicode="&#xe81a;" d="M505.677 233.447c-15.974 43.725-60.595 69.811-119.347 69.811-2.279 0-4.505-0.077-6.707-0.179l-0.384 52.787c0 0 87.27 15.079 90.214 15.591s3.43 3.047 2.816 5.888c-0.589 2.841-4.275 22.63-4.813 25.011-0.717 3.328-2.637 3.251-5.299 2.791s-83.226-11.827-83.226-11.827-0.281 50.022-0.307 53.222c-0.026 3.2-1.792 4.070-4.966 4.019-3.2-0.051-23.577-0.358-26.265-0.409-2.688-0.026-4.173-1.255-4.122-3.815s0.845-59.034 0.845-59.034-78.387-13.543-80.537-13.901-4.352-1.382-3.84-3.661c0.486-2.279 4.864-27.981 5.325-30.003 0.435-2.022 1.817-3.251 4.787-2.739s74.88 12.928 74.88 12.928l0.896-51.661c-27.571-7.245-46.106-21.094-57.754-33.357-19.661-20.659-30.899-48.307-30.899-75.853 0-40.653 24.832-64.743 59.571-68.992 80.973-9.907 131.047 78.31 147.712 120.678 28.109-38.528 6.579-111.462-53.606-153.063-1.075-0.793-2.483-3.303-0.819-5.299s13.824-16.947 15.846-19.405c2.022-2.406 5.274-1.459 6.553-0.538 64.256 44.211 93.696 115.507 73.447 171.008zM316.57 151.859c-24.704 3.098-24.141 23.399-24.141 37.197 0 19.789 8.371 40.448 22.4 55.194 8.601 9.037 19.2 15.898 31.462 20.454l2.099-109.491c-9.805-3.353-20.403-4.762-31.821-3.353zM378.726 165.99l1.152 105.19c2.151 0.103 4.275 0.256 6.451 0.256 19.789 0 38.272-3.712 48.281-9.267s-26.189-69.427-55.885-96.179zM149.581 362.291c-0.768 2.406-2.611 3.686-4.992 3.686h-49.92c-2.355 0-4.224-1.28-4.966-3.686-10.522-33.255-89.114-281.395-89.498-282.649-0.435-1.357-0.281-1.945 1.587-1.945h44.365c1.92 0 2.535 0.589 2.893 1.843 0.41 1.305 25.831 84.941 25.831 84.941h89.498c0 0 25.421-83.661 25.805-84.941 0.41-1.255 0.973-1.843 2.918-1.843h44.339c1.894 0 2.048 0.589 1.587 1.945-0.333 1.255-78.899 249.395-89.446 282.649zM82.611 200.55l37.043 134.4 37.017-134.4h-74.061z" />
<glyph unicode="&#xe83d;" d="M256 153.6c-28.006 0-50.662-22.938-50.662-51.2s22.656-51.2 50.662-51.2c27.981 0 50.663 22.938 50.663 51.2s-22.682 51.2-50.663 51.2zM148.48 210.995l35.84-36.199c39.577 39.987 103.757 39.987 143.36 0l35.84 36.199c-59.392 60.007-155.673 60.007-215.040 0zM76.8 283.418l35.814-36.199c79.181 79.974 207.539 79.974 286.72 0l35.865 36.199c-98.969 99.968-259.43 99.968-358.4 0zM5.12 355.815l35.84-36.199c118.784 119.962 311.322 119.962 430.080 0l35.84 36.199c-138.547 139.981-363.213 139.981-501.76 0z" />
<glyph unicode="&#xe847;" d="M282.137 76.8h-205.85v358.4h205.824v-76.8h50.688v76.8c0 28.16-23.014 51.2-51.2 51.2h-204.8c-28.16 0-51.2-23.040-51.2-51.2v-358.4c0-28.16 23.040-51.2 51.2-51.2h204.8c28.185 0 51.2 23.040 51.2 51.2v51.2h-50.663v-51.2zM486.4 243.2l-101.863 99.84v-61.44h-230.4v-76.8h230.4v-61.44l101.863 99.84z" />
<glyph unicode="&#xe848;" d="M435.2 486.4h-230.4c-28.16 0-50.688-23.040-50.688-51.2v-76.8h50.688v76.8h230.4v-358.4h-230.4v51.2h-50.688v-51.2c0-28.16 22.528-51.2 50.688-51.2h230.4c28.16 0 51.2 23.040 51.2 51.2v358.4c0 28.16-23.040 51.2-51.2 51.2zM256 143.36l102.4 99.84-102.4 99.84v-61.44h-230.4v-76.8h230.4v-61.44z" />
<glyph unicode="&#xe84b;" d="M409.6 460.8h-307.2c-28.16 0-51.2-23.040-51.2-51.2v-307.2c0-28.16 23.040-51.2 51.2-51.2h307.2c28.16 0 51.2 23.040 51.2 51.2v307.2c0 28.16-23.040 51.2-51.2 51.2zM384 230.4h-256v51.2h256v-51.2z" />
<glyph unicode="&#xe84c;" d="M409.6 460.8h-307.2c-28.16 0-51.2-23.040-51.2-51.2v-307.2c0-28.16 23.040-51.2 51.2-51.2h307.2c28.16 0 51.2 23.040 51.2 51.2v307.2c0 28.16-23.040 51.2-51.2 51.2zM384 230.4h-102.4v-102.4h-51.2v102.4h-102.4v51.2h102.4v102.4h51.2v-102.4h102.4v-51.2z" />
<glyph unicode="&#xe84d;" d="M409.6 460.8h-307.2c-28.16 0-51.2-23.040-51.2-51.2v-307.2c0-28.16 23.040-51.2 51.2-51.2h307.2c28.16 0 51.2 23.040 51.2 51.2v307.2c0 28.16-23.040 51.2-51.2 51.2zM334.361 133.401l-78.362 78.336-78.362-78.362-44.237 44.262 78.336 78.362-78.336 78.336 44.237 44.262 78.362-78.336 78.336 78.336 44.262-44.237-78.336-78.361 78.361-78.361-44.262-44.237z" />
<glyph unicode="&#xe84e;" d="M256 471.040c-118.784 0-215.040-96.307-215.040-215.040 0-118.784 96.281-215.040 215.040-215.040s215.040 96.281 215.040 215.040c0 118.759-96.281 215.040-215.040 215.040zM385.28 282.163v-52.352h-258.56v52.352h258.56z" />
<glyph unicode="&#xe84f;" d="M256 471.040c-118.784 0-215.040-96.307-215.040-215.040 0-118.784 96.281-215.040 215.040-215.040s215.040 96.281 215.040 215.040c0 118.759-96.281 215.040-215.040 215.040zM282.163 229.837v-103.091h-52.327v103.091h-103.117v52.327h103.091v103.117h52.352v-103.091h103.091v-52.352h-103.091z" />
<glyph unicode="&#xe850;" d="M256 471.040c-118.784 0-215.040-96.307-215.040-215.040 0-118.784 96.281-215.040 215.040-215.040s215.040 96.281 215.040 215.040c0 118.759-96.281 215.040-215.040 215.040zM300.262 256l78.362-78.361-44.262-44.262-78.362 78.362-78.362-78.361-44.237 44.262 78.336 78.362-78.336 78.336 44.237 44.262 78.362-78.336 78.361 78.336 44.262-44.237-78.362-78.362z" />
<glyph unicode="&#xe853;" d="M460.8 435.2h-244.583c-11.264 0-27.417-6.067-35.891-13.491l-173.977-152.218c-8.473-7.424-8.473-19.558 0-26.982l173.977-152.243c8.474-7.399 24.627-13.466 35.891-13.466h244.583c28.185 0 51.2 23.040 51.2 51.2v256c0 28.16-23.014 51.2-51.2 51.2zM388.889 153.6l-65.459 65.459-65.408-65.459-36.966 36.941 65.433 65.459-65.433 65.433 36.966 36.966 65.433-65.433 65.433 65.433 36.941-36.966-65.408-65.433 65.433-65.433-36.966-36.966z" />
<glyph unicode="&#xe856;" d="M252.851 491.495c-130.048-1.741-234.087-108.595-232.345-238.669 1.741-129.997 108.595-234.061 238.643-232.32s234.087 108.595 232.346 238.669c-1.715 130.023-108.595 234.061-238.643 232.32zM278.963 413.005c23.936 0 31.002-13.875 31.002-29.773 0-19.84-15.897-38.195-43.008-38.195-22.681 0-33.459 11.417-32.819 30.259 0 15.897 13.312 37.709 44.825 37.709zM217.575 108.8c-16.358 0-28.339 9.933-16.896 53.606l18.765 77.415c3.251 12.416 3.789 17.382 0 17.382-4.889 0-26.137-8.576-38.707-17.024l-8.166 13.389c39.808 33.229 85.581 52.736 105.19 52.736 16.358 0 19.072-19.353 10.906-49.127l-21.504-81.408c-3.789-14.387-2.151-19.353 1.639-19.353 4.889 0 20.992 5.939 36.813 18.381l9.241-12.416c-38.681-38.681-80.896-53.581-97.28-53.581z" />
<glyph unicode="&#xe858;" d="M252.877 491.495c-130.073-1.741-234.112-108.595-232.371-238.669 1.741-129.997 108.595-234.061 238.669-232.32 130.022 1.741 234.087 108.595 232.32 238.669-1.715 130.023-108.57 234.061-238.618 232.32zM252.185 112.64h-1.305c-20.019 0.589-34.15 15.36-33.587 35.097 0.563 19.379 15.027 33.485 34.406 33.485l1.178-0.026c20.582-0.615 34.56-15.232 33.945-35.533-0.563-19.43-14.822-33.024-34.637-33.024zM336.435 279.859c-4.736-6.682-15.079-15.002-28.135-25.165l-14.387-9.933c-7.885-6.144-12.647-11.904-14.413-17.562-1.433-4.505-2.099-5.658-2.227-14.745l-0.026-2.329h-54.861l0.154 4.659c0.666 19.098 1.152 30.31 9.063 39.603 12.416 14.566 39.808 32.205 40.96 32.947 3.917 2.969 7.219 6.323 9.702 9.907 5.76 7.936 8.294 14.208 8.294 20.327 0 8.525-2.534 16.41-7.526 23.424-4.813 6.784-13.952 10.214-27.161 10.214-13.107 0-22.067-4.173-27.443-12.697-5.555-8.781-8.32-17.971-8.32-27.392v-2.355h-56.576l0.102 2.457c1.459 34.663 13.824 59.597 36.761 74.163 14.387 9.293 32.307 13.977 53.197 13.977 27.366 0 50.509-6.656 68.685-19.763 18.432-13.286 27.776-33.203 27.776-59.161 0-14.541-4.582-28.185-13.619-40.576z" />
<glyph unicode="&#xe859;" d="M499.507 51.661l-228.045 400.154c-3.149 5.529-9.063 8.935-15.463 8.935s-12.288-3.405-15.463-8.935l-228.019-400.154c-3.098-5.427-3.046-12.058 0.128-17.433s9.011-8.678 15.309-8.678h456.064c6.247 0 12.109 3.303 15.309 8.678 3.175 5.376 3.226 12.007 0.179 17.433zM284.16 76.749h-56.32v51.2h56.32v-51.2zM284.16 166.349h-56.32v153.6h56.32v-153.6z" />
<glyph unicode="&#xe85a;" d="M141.209 147.865c-57.907 62.285-56.883 159.872 3.251 220.442 24.627 24.781 55.398 39.577 87.398 44.441l-1.767 53.171c-44.903-5.453-88.371-25.498-122.803-60.16-80.615-81.203-81.561-212.224-3.149-295.219l-44.569-44.877 141.056-7.705-0.384 149.351-59.034-59.443zM311.347 454.016l0.384-149.351 59.059 59.469c57.907-62.285 56.909-159.872-3.251-220.442-24.627-24.807-55.399-39.577-87.424-44.442l1.767-53.145c44.928 5.453 88.397 25.498 122.829 60.185 80.589 81.178 81.587 212.224 3.123 295.193l44.57 44.877-141.056 7.654z" />
<glyph unicode="&#xe85e;" d="M409.651 353.28h-276.48v56.32l-107.52-92.16 107.52-92.16v56.32h256v-107.52h-332.8v-71.68h353.28c28.262 0 51.2 22.938 51.2 51.2v148.48c0 28.288-22.963 51.2-51.2 51.2z" />
<glyph unicode="&#xe85f;" d="M102.451 179.2h207.386v-76.8l122.88 112.64-122.88 112.615v-76.8h-186.88v158.745h-71.706v-179.2c0-28.262 22.912-51.2 51.2-51.2z" />
<glyph unicode="&#xe860;" d="M127.488 174.080v133.632h51.712l-89.6 101.888-89.6-101.888h51.712v-154.112c0-28.262 22.912-51.2 51.2-51.2h229.888l-65.587 71.68h-139.725zM460.262 204.288v154.112c0 28.263-22.938 51.2-51.2 51.2h-229.863l65.561-71.68h139.75v-133.632h-51.712l89.6-101.888 89.6 101.888h-51.738z" />
<glyph unicode="&#xe861;" d="M435.2 353.28h-97.28v-71.68h76.8v-107.52h-317.44v107.52h107.52v-56.32l102.4 92.16-102.4 92.16v-56.32h-128c-28.263 0-51.2-22.912-51.2-51.2v-148.48c0-28.262 22.938-51.2 51.2-51.2h358.4c28.288 0 51.2 22.938 51.2 51.2v148.48c0 28.288-22.912 51.2-51.2 51.2z" />
<glyph unicode="&#xe862;" d="M287.411 465.92c-113.817 0-206.362-91.187-209.126-204.672h-62.925l94.183-104.986 94.157 104.986h-73.113c2.765 84.505 71.885 152.192 156.826 152.192 86.682 0 156.928-70.477 156.928-157.44s-70.246-157.44-156.928-157.44c-34.765 0-66.867 11.366-92.877 30.541l-35.993-38.502c35.533-27.878 80.256-44.519 128.87-44.519 115.558 0 209.255 93.978 209.255 209.92-0.026 115.942-93.721 209.92-209.255 209.92zM268.8 368.64v-120.064l76.928-76.928 25.344 25.344-66.432 66.432v105.216h-35.84z" />
<glyph unicode="&#xe863;" d="M123.29 256h261.12v-122.88h71.68v143.36c0 28.288-22.938 51.2-51.2 51.2h-281.6v51.2l-102.4-87.040 102.4-81.92v46.080z" />
<glyph unicode="&#xe864;" d="M358.4 378.88h-256v51.2l-102.4-87.040 102.4-81.92v46.080h256v71.68zM512 163.84l-102.4 87.040v-51.2h-256v-71.68h256v-46.080l102.4 81.92z" />
<glyph unicode="&#xe876;" d="M388.403 460.8h-286.003c-28.16 0-51.2-23.040-51.2-51.2v-307.2c0-28.16 23.040-51.2 51.2-51.2h307.2c28.16 0 51.2 23.040 51.2 51.2v278.349l-72.397 80.051zM358.4 307.2c0-14.080-11.52-25.6-25.6-25.6h-153.6c-14.080 0-25.6 11.52-25.6 25.6v128h204.8v-128zM332.8 409.6h-51.2v-102.4h51.2v102.4z" />
</font>
</defs>
</svg>
