<?xml version="1.0" encoding="utf-8"?>
<!-- Generated by IcoMoon.io -->
<!DOCTYPE svg PUBLIC "-//W3C//DTD SVG 1.1//EN" "http://www.w3.org/Graphics/SVG/1.1/DTD/svg11.dtd">
<svg version="1.1" xmlns="http://www.w3.org/2000/svg" xmlns:xlink="http://www.w3.org/1999/xlink" width="32" height="32" viewBox="0 0 32 32">
<g>
</g>
	<path d="M14.453 21.356c-0.388-0.129-0.647-0.485-0.647-0.906v-0.324h4.531v0.324c0 0.421-0.259 0.777-0.647 0.906-0.097 0.032-0.194 0.065-0.324 0.065h-2.589c-0.129 0-0.227-0.032-0.324-0.065zM22.867 16.242h-13.916c-0.55 0-0.971 0.421-0.971 0.971v1.295c0 0.55 0.421 0.971 0.971 0.971h14.24c0.55 0 0.971-0.421 0.971-0.971v-0.971c0-0.712-0.583-1.295-1.295-1.295zM10.602 14.43c0.162 0.55 0.777 1.165 1.359 1.165h8.35c0.162 0 0.939-0.065 1.327-1.165l2.233-8.382c0.097-0.485 0.194-1.812-0.744-2.945-0.809-0.971-2.265-1.553-4.175-1.683-0.291-0.065-0.583-0.065-0.874-0.065 0 0 0 0 0 0h-4.531c0 0 0 0 0 0-0.324 0-0.647 0-0.939 0.032 0 0 0 0-0.032 0-2.039 0.194-3.107 1.003-3.657 1.715-0.744 0.971-0.809 2.136-0.615 2.913l2.298 8.415zM6.524 12.391c-0.032-0.097-0.097-0.194-0.162-0.291-0.485-0.647-1.845-0.388-2.557-0.388-0.518 0-0.939 0.421-0.939 0.939 0 0.583 0.421 1.003 0.939 1.003h1.651v4.531c0 0 1.295 0 1.295 0s0-4.596-0.032-5.016c-0.032-0.259-0.065-0.55-0.194-0.777zM28.337 11.712c-0.744 0-2.071-0.259-2.557 0.388-0.065 0.097-0.129 0.194-0.162 0.291-0.097 0.259-0.162 0.518-0.162 0.809-0.065 0.388-0.065 4.984-0.065 4.984 0 0 1.295 0 1.295 0v-4.531h1.651c0.518 0 0.939-0.421 0.939-1.003 0-0.518-0.421-0.939-0.939-0.939zM22.609 28.476c0.194 0 0.388 0.032 0.583 0.097-0.583-1.489-2.104-2.686-5.502-2.977-0.227-0.032-0.421-0.032-0.647-0.065v-3.463h-1.942v3.463c-0.227 0-0.453 0.032-0.647 0.032-3.948 0.291-5.502 1.78-6.117 2.945 0.129-0.032 0.227-0.032 0.356-0.032 0.324 0 0.647 0.097 0.939 0.291 0.518-0.777 1.78-1.683 4.822-1.909 0.194 0 0.421-0.032 0.647-0.032v1.942c0.291-0.194 0.615-0.291 0.971-0.291s0.68 0.097 0.971 0.324v-1.942c0.227 0 0.453 0.032 0.647 0.032 2.557 0.227 3.657 0.971 4.143 1.78 0.259-0.129 0.518-0.194 0.777-0.194zM16.88 29.511c-0.194-0.227-0.485-0.388-0.809-0.388-0.259 0-0.453 0.097-0.647 0.227-0.259 0.194-0.421 0.485-0.421 0.809 0 0.032 0 0.032 0 0.065 0 0.583 0.485 1.068 1.068 1.068s1.068-0.485 1.068-1.068c0-0.032 0-0.032 0-0.065 0-0.259-0.097-0.485-0.259-0.647zM23.45 29.511c-0.194-0.227-0.485-0.388-0.809-0.388-0.259 0-0.453 0.097-0.647 0.227-0.259 0.194-0.421 0.485-0.421 0.809 0 0.032 0 0.032 0 0.065 0 0.583 0.485 1.068 1.068 1.068s1.068-0.485 1.068-1.068c0-0.032 0-0.032 0-0.065-0.032-0.259-0.129-0.485-0.259-0.647zM9.534 29.511c-0.194-0.227-0.485-0.388-0.809-0.388-0.259 0-0.453 0.097-0.647 0.227-0.259 0.194-0.421 0.485-0.421 0.809 0 0.032 0 0.032 0 0.065 0 0.583 0.485 1.068 1.068 1.068s1.068-0.485 1.068-1.068c0-0.032 0-0.032 0-0.065-0.032-0.259-0.129-0.485-0.259-0.647z" fill="#000000"></path>
</svg>
