<?xml version="1.0" encoding="utf-8"?>
<!-- Generated by IcoMoon.io -->
<!DOCTYPE svg PUBLIC "-//W3C//DTD SVG 1.1//EN" "http://www.w3.org/Graphics/SVG/1.1/DTD/svg11.dtd">
<svg version="1.1" xmlns="http://www.w3.org/2000/svg" xmlns:xlink="http://www.w3.org/1999/xlink" width="30" height="32" viewBox="0 0 30 32">
<g>
</g>
	<path d="M15.2 3.913v-0.001c-0.004 0-0.008 0-0.012 0.001-0.004 0-0.008-0.001-0.012-0.001v0.001c-5.305 0.065-9.604 4.398-9.604 9.718 0 5.322 4.299 9.652 9.604 9.718v0.001c0.004 0 0.008 0 0.012-0.001 0.004 0 0.008 0.001 0.012 0.001v-0.001c5.305-0.065 9.604-4.396 9.604-9.718 0-5.32-4.298-9.652-9.604-9.718z" fill="#000000"></path>
	<path d="M26.592 21.798c0.28-0.406 0.469-0.837 0.55-1.247 0.087-0.433 0.065-0.841-0.050-1.188l-0.002-0.002c-0.002-0.007-0.004-0.015-0.006-0.023-0.006-0.013-0.012-0.028-0.014-0.042l-0.002-0.005c-0.15-0.428-0.169-0.957-0.052-1.503l-0.005-0.003c0.022-0.092 0.044-0.183 0.074-0.277 0.083-0.249 0.189-0.48 0.312-0.69 0.465-0.655 1.804-1.221 1.804-3.268 0-2.142-1.727-2.723-2.052-3.655-0.008-0.021-0.019-0.032-0.027-0.050-0.017-0.045-0.036-0.088-0.050-0.135-0.207-0.653-0.224-1.302-0.053-1.813l0.012-0.035c0.112-0.33 0.14-0.726 0.068-1.147h-0.001v-0.002c-0.009-0.053-0.022-0.107-0.033-0.162l-0.002-0.018c-0.012-0.048-0.025-0.098-0.039-0.146l-0.011-0.037c-0.011-0.041-0.026-0.084-0.041-0.126l-0.020-0.056-0.040-0.102-0.032-0.080-0.031-0.066c-0.017-0.038-0.034-0.074-0.052-0.111l-0.009-0.018c-0.085-0.165-0.183-0.327-0.298-0.484l-0.021-0.028-0.011-0.015c-0.312-0.423-0.684-0.751-1.070-0.966-0.385-0.217-0.781-0.321-1.145-0.318h-0.003c-0.009 0-0.016 0-0.024-0.001-0.014 0.001-0.029 0.002-0.045 0.001h-0.006c-0.452 0.012-0.962-0.135-1.446-0.415l-0.003 0.004c-0.079-0.048-0.16-0.101-0.239-0.157-0.553-0.407-0.945-0.923-1.105-1.436l-0.012-0.037c-0.103-0.332-0.313-0.668-0.618-0.966l-0.001-0.001c-0.039-0.039-0.080-0.077-0.122-0.112l-0.014-0.013c-0.038-0.032-0.076-0.065-0.116-0.096l-0.030-0.024-0.108-0.079-0.048-0.033-0.093-0.061-0.072-0.044-0.065-0.036c-0.036-0.022-0.072-0.040-0.108-0.059l-0.017-0.009c-0.165-0.083-0.34-0.157-0.525-0.217l-0.033-0.010-0.020-0.007c-0.501-0.156-0.996-0.203-1.434-0.151-0.439 0.052-0.821 0.2-1.113 0.419l-0.003 0.001c-0.006 0.006-0.013 0.010-0.021 0.014-0.010 0.011-0.022 0.020-0.036 0.027l-0.003 0.003c-0.36 0.278-0.858 0.457-1.415 0.516v0.005c-0.050 0.005-0.102 0.006-0.152 0.007-0.051-0.001-0.103-0.001-0.152-0.007v-0.005c-0.557-0.060-1.055-0.239-1.415-0.516l-0.003-0.003c-0.013-0.008-0.026-0.016-0.036-0.028-0.007-0.004-0.014-0.008-0.021-0.014l-0.003-0.001c-0.292-0.219-0.674-0.366-1.113-0.419-0.438-0.051-0.932-0.005-1.434 0.151l-0.020 0.007-0.033 0.011c-0.185 0.060-0.36 0.134-0.525 0.217l-0.018 0.009c-0.036 0.019-0.072 0.037-0.108 0.059l-0.064 0.036-0.072 0.044-0.093 0.061-0.048 0.033-0.107 0.077-0.031 0.025c-0.040 0.031-0.078 0.063-0.116 0.095l-0.014 0.013c-0.042 0.035-0.083 0.073-0.122 0.112l-0.001 0.001c-0.306 0.298-0.515 0.634-0.618 0.966l-0.011 0.038c-0.161 0.513-0.553 1.030-1.105 1.436-0.079 0.058-0.16 0.11-0.24 0.158l-0.003-0.004c-0.484 0.28-0.994 0.427-1.446 0.415h-0.006c-0.016 0.001-0.031 0-0.045-0.001-0.008 0.001-0.014 0.001-0.024 0.001h-0.003c-0.365-0.003-0.76 0.101-1.145 0.318-0.386 0.215-0.758 0.543-1.070 0.966l-0.011 0.015-0.021 0.028c-0.115 0.155-0.213 0.319-0.298 0.484l-0.009 0.018c-0.018 0.037-0.035 0.073-0.051 0.111l-0.031 0.066-0.033 0.080-0.040 0.102-0.019 0.056c-0.015 0.041-0.030 0.084-0.041 0.126l-0.011 0.037c-0.014 0.048-0.028 0.098-0.039 0.146l-0.003 0.018c-0.012 0.055-0.025 0.109-0.034 0.162v0.002c-0.072 0.422-0.044 0.817 0.068 1.148l0.012 0.035c0.171 0.511 0.153 1.16-0.054 1.813-0.014 0.045-0.033 0.088-0.050 0.134-0.009 0.019-0.020 0.031-0.027 0.050-0.325 0.932-2.052 1.513-2.052 3.655 0 2.047 1.339 2.612 1.804 3.268 0.122 0.21 0.228 0.441 0.312 0.69 0.030 0.094 0.054 0.185 0.074 0.277l-0.005 0.003c0.116 0.546 0.099 1.075-0.052 1.503l-0.002 0.005c-0.002 0.014-0.008 0.029-0.014 0.042-0.002 0.008-0.004 0.016-0.006 0.023l-0.002 0.002c-0.115 0.348-0.138 0.755-0.050 1.188 0.081 0.411 0.271 0.841 0.55 1.247l-3.785 7.091h4.038l2.051 3.11 3.489-5.746c0.028 0.028 0.046 0.061 0.076 0.088 0.325 0.297 0.753 0.55 1.253 0.714 0.185 0.061 0.37 0.104 0.553 0.133l0.019 0.003c0.042 0.006 0.082 0.010 0.121 0.015l0.076 0.009 0.084 0.007 0.109 0.007h0.229c0.050-0.003 0.102-0.005 0.15-0.010l0.019-0.001c0.057-0.005 0.111-0.013 0.167-0.021h0.001c0.423-0.063 0.789-0.211 1.068-0.42l0.030-0.022c0.413-0.308 1.004-0.489 1.656-0.508 0.652 0.020 1.243 0.201 1.656 0.508l0.030 0.022c0.279 0.209 0.645 0.358 1.068 0.42h0.001c0.056 0.007 0.11 0.015 0.167 0.021l0.019 0.001c0.049 0.005 0.101 0.007 0.15 0.010h0.229l0.109-0.007 0.084-0.007 0.076-0.009c0.039-0.005 0.079-0.009 0.121-0.015l0.019-0.003c0.182-0.029 0.367-0.072 0.553-0.133 0.499-0.164 0.927-0.417 1.253-0.714 0.030-0.028 0.048-0.061 0.076-0.088l3.489 5.746 2.051-3.109h4.038l-3.784-7.092zM25.176 16.6c-0.113 0.383-0.246 0.757-0.403 1.127-0.53 1.253-1.288 2.379-2.254 3.345-0.965 0.965-2.090 1.724-3.343 2.253-1.265 0.534-2.604 0.808-3.986 0.822-1.382-0.014-2.723-0.288-3.986-0.822-1.253-0.53-2.378-1.288-3.343-2.253-0.966-0.966-1.726-2.092-2.254-3.345-0.156-0.368-0.289-0.744-0.403-1.127-0.126-0.459-0.424-1.684-0.424-2.969 0-1.627 0.424-2.969 0.424-2.969 0.113-0.382 0.246-0.757 0.403-1.128 0.53-1.252 1.288-2.377 2.254-3.343 0.965-0.965 2.090-1.724 3.343-2.254 1.265-0.534 2.604-0.808 3.986-0.821 1.382 0.013 2.723 0.287 3.986 0.821 1.253 0.53 2.378 1.289 3.343 2.254 0.966 0.966 1.726 2.091 2.254 3.343 0.156 0.369 0.289 0.746 0.403 1.128 0 0 0.424 1.342 0.424 2.969 0 1.284-0.298 2.51-0.424 2.969z" fill="#000000"></path>
</svg>
