<?xml version="1.0" encoding="utf-8"?>
<!-- Generated by IcoMoon.io -->
<!DOCTYPE svg PUBLIC "-//W3C//DTD SVG 1.1//EN" "http://www.w3.org/Graphics/SVG/1.1/DTD/svg11.dtd">
<svg version="1.1" xmlns="http://www.w3.org/2000/svg" xmlns:xlink="http://www.w3.org/1999/xlink" width="32" height="32" viewBox="0 0 32 32">
<g>
</g>
	<path d="M4.569 22.065v-15.024c0-1.571 0.589-2.946 1.669-4.026 1.178-1.178 2.455-1.768 4.124-1.768h13.649c1.571 0 2.946 0.589 4.026 1.768 1.080 1.080 1.669 2.455 1.669 4.026v15.024c0 0.982-0.196 1.964-0.687 2.848-0.491 0.786-1.080 1.473-1.866 2.062v2.651c0 0.393-0.196 0.884-0.491 1.178-0.393 0.393-0.786 0.589-1.276 0.589-0.491 0-0.884-0.196-1.178-0.589-0.393-0.295-0.589-0.786-0.589-1.178v-1.768h-12.765v1.767c0 0.393-0.196 0.884-0.589 1.178-0.295 0.393-0.687 0.589-1.178 0.589-0.491 0-0.884-0.196-1.277-0.589-0.295-0.295-0.491-0.786-0.491-1.178v-2.553c-0.884-0.589-1.473-1.276-1.964-2.16s-0.786-1.768-0.786-2.848zM8.104 12.54h18.067v-5.499c0-0.589-0.196-1.178-0.589-1.571-0.393-0.491-0.982-0.687-1.571-0.687h-13.649c-0.687 0-1.178 0.196-1.571 0.687-0.491 0.393-0.687 0.982-0.687 1.571zM9.773 20.003c0 0.491 0.196 0.884 0.589 1.375 0.393 0.393 0.786 0.589 1.277 0.589 0.491 0 0.982-0.196 1.375-0.589 0.393-0.491 0.589-0.884 0.589-1.375 0-0.393-0.196-0.884-0.589-1.276-0.393-0.491-0.884-0.687-1.375-0.687-0.491 0-0.884 0.196-1.277 0.687-0.393 0.393-0.589 0.884-0.589 1.276zM20.967 20.003c0 0.491 0.196 0.884 0.589 1.375 0.393 0.393 0.786 0.589 1.276 0.589 0.491 0 0.884-0.196 1.276-0.589 0.393-0.491 0.687-0.884 0.687-1.375 0-0.393-0.295-0.884-0.687-1.276-0.393-0.491-0.786-0.687-1.276-0.687-0.491 0-0.884 0.196-1.276 0.687-0.393 0.393-0.589 0.884-0.589 1.276z" fill="#000000"></path>
</svg>
