<?xml version="1.0" encoding="utf-8"?>
<!-- Generated by IcoMoon.io -->
<!DOCTYPE svg PUBLIC "-//W3C//DTD SVG 1.1//EN" "http://www.w3.org/Graphics/SVG/1.1/DTD/svg11.dtd">
<svg version="1.1" xmlns="http://www.w3.org/2000/svg" xmlns:xlink="http://www.w3.org/1999/xlink" width="32" height="32" viewBox="0 0 32 32">
<g>
</g>
	<path d="M2.593 20.765v-3.98c0-1.047 0.209-1.99 0.733-2.933 0.419-0.838 1.047-1.571 1.885-2.2l1.362-3.352c0.524-1.676 1.152-2.933 1.781-3.666 0.943-1.257 2.2-1.885 3.666-1.885h8.065c0.628 0 1.152 0.105 1.676 0.314s0.943 0.524 1.257 0.733c0.314 0.209 0.628 0.628 0.943 1.152 0.314 0.524 0.524 0.838 0.733 1.152 0.105 0.209 0.209 0.628 0.524 1.152 0.209 0.628 0.314 0.943 0.314 0.943l1.676 3.771c1.466 1.257 2.2 2.828 2.2 4.818v3.98c0 1.047-0.314 2.095-0.733 3.037-0.524 0.838-1.152 1.571-1.99 2.2v2.828c0 0.419-0.209 0.943-0.628 1.257-0.314 0.419-0.838 0.628-1.257 0.628-0.524 0-0.943-0.209-1.362-0.628-0.314-0.314-0.524-0.838-0.524-1.257v-1.885h-13.616v1.885c0 0.419-0.209 0.943-0.628 1.257-0.314 0.419-0.733 0.628-1.257 0.628-0.524 0-0.943-0.209-1.362-0.628-0.314-0.314-0.524-0.838-0.524-1.257v-2.828c-0.943-0.524-1.571-1.257-2.095-2.2s-0.838-1.885-0.838-3.037zM8.040 18.566c0 0.524 0.209 0.943 0.733 1.466 0.419 0.419 0.838 0.628 1.362 0.628 0.524 0 1.047-0.209 1.466-0.628 0.419-0.524 0.628-0.943 0.628-1.466 0-0.419-0.209-0.943-0.628-1.362-0.419-0.524-0.943-0.733-1.466-0.733-0.524 0-0.943 0.209-1.362 0.733-0.524 0.419-0.733 0.943-0.733 1.362zM9.716 10.606h12.778l-0.419-0.943c-0.524-1.152-0.838-1.99-1.152-2.409-0.314-0.524-0.628-0.733-0.838-0.733h-8.065c-0.524 0-1.257 1.047-1.99 3.037zM19.98 18.566c0 0.524 0.209 0.943 0.628 1.466 0.524 0.419 0.943 0.628 1.466 0.628 0.524 0 0.943-0.209 1.362-0.628 0.419-0.524 0.733-0.943 0.733-1.466 0-0.419-0.314-0.943-0.733-1.362-0.419-0.524-0.838-0.733-1.362-0.733-0.524 0-0.943 0.209-1.466 0.733-0.419 0.419-0.628 0.943-0.628 1.362z" fill="#000000"></path>
</svg>
