<?xml version="1.0" encoding="utf-8"?>
<!-- Generated by IcoMoon.io -->
<!DOCTYPE svg PUBLIC "-//W3C//DTD SVG 1.1//EN" "http://www.w3.org/Graphics/SVG/1.1/DTD/svg11.dtd">
<svg version="1.1" xmlns="http://www.w3.org/2000/svg" xmlns:xlink="http://www.w3.org/1999/xlink" width="44" height="32" viewBox="0 0 44 32">
<g>
</g>
	<path d="M6.591 18.396h19.733v1.483h-19.733v-1.483z" fill="#000000"></path>
	<path d="M6.591 15.487h19.733v1.483h-19.733v-1.483z" fill="#000000"></path>
	<path d="M6.591 12.236h19.733v1.483h-19.733v-1.483z" fill="#000000"></path>
	<path d="M10.014 9.1h13.002v1.483h-13.002v-1.483z" fill="#000000"></path>
	<path d="M39.072 21.607c0 2.27-1.84 4.111-4.111 4.111s-4.111-1.84-4.111-4.111c0-2.27 1.84-4.111 4.111-4.111 2.27 0 4.111 1.84 4.111 4.111z" fill="#000000"></path>
	<path d="M40.975 23.038l-6.012 4.751 3.331 4.211 1.584-4.172 4.425-0.578z" fill="#000000"></path>
	<path d="M24.388 24.935l4.172 1.584 0.579 4.427 4.21-3.331-4.75-6.010z" fill="#000000"></path>
	<path d="M22.76 26.142h-19.933v-24.317h28.060v8.909h9.241v9.273l1.826 1.689v-12.785l-9.241-8.911h-31.713v27.967l25.331-0.029-0.015-0.987-3.555-0.809zM32.713 2.761l6.377 6.15h-6.377v-6.15z" fill="#000000"></path>
</svg>
