<?xml version="1.0" encoding="utf-8"?>
<!-- Generator: Adobe Illustrator 16.0.3, SVG Export Plug-In . SVG Version: 6.00 Build 0)  -->
<!DOCTYPE svg PUBLIC "-//W3C//DTD SVG 1.1//EN" "http://www.w3.org/Graphics/SVG/1.1/DTD/svg11.dtd">
<svg version="1.1" id="Layer_1" xmlns="http://www.w3.org/2000/svg" xmlns:xlink="http://www.w3.org/1999/xlink" x="0px" y="0px"
	 width="500px" height="400px" viewBox="0 0 500 400" enable-background="new 0 0 500 400" xml:space="preserve">
<g>
	<line fill="none" stroke="#449FDB" x1="-182.724" y1="-183.428" x2="-182.724" y2="-183.428"/>
</g>
<path fill="#1C3F94" d="M272.863,74.915c19.074,0,24.713,11.054,24.713,23.721c0,15.812-12.674,30.432-34.272,30.432
	c-18.068,0-26.646-9.101-26.155-24.108C237.147,92.287,247.756,74.915,272.863,74.915L272.863,74.915z"/>
<path fill="#1C3F94" d="M223.945,317.285c-13.026,0-22.574-7.916-13.461-42.711l14.949-61.684c2.591-9.892,3.026-13.845,0-13.845
	c-3.896,0-20.826,6.836-30.834,13.57l-6.498-10.677c31.71-26.472,68.182-42.015,83.793-42.015c13.021,0,15.188,15.424,8.701,39.133
	l-17.129,64.883c-3.024,11.441-1.707,15.412,1.293,15.412c3.896,0,16.719-4.729,29.342-14.639l7.371,9.883
	C270.648,305.422,237.012,317.299,223.945,317.285L223.945,317.285z"/>
<g>
	<path fill="#1C3F94" d="M254.564,389.99c-104.761,0-189.99-85.229-189.99-189.99c0-104.761,85.229-189.99,189.99-189.99
		c104.761,0,189.99,85.229,189.99,189.99C444.555,304.761,359.325,389.99,254.564,389.99z M254.564,38.798
		c-88.888,0-161.203,72.314-161.203,161.202c0,88.887,72.315,161.202,161.203,161.202c88.887,0,161.202-72.315,161.202-161.202
		C415.767,111.112,343.451,38.798,254.564,38.798z"/>
</g>
</svg>
