<?xml version="1.0" encoding="utf-8"?>
<!-- Generated by IcoMoon.io -->
<!DOCTYPE svg PUBLIC "-//W3C//DTD SVG 1.1//EN" "http://www.w3.org/Graphics/SVG/1.1/DTD/svg11.dtd">
<svg version="1.1" xmlns="http://www.w3.org/2000/svg" xmlns:xlink="http://www.w3.org/1999/xlink" width="40" height="32" viewBox="0 0 40 32">
<g>
</g>
	<path d="M29.17 19.038h-3.022l-2.974-8.281c0.857-0.734 1.4-1.824 1.4-3.039 0-1.895-1.325-3.487-3.097-3.9v-2.519h-1.814v2.519c-1.772 0.412-3.097 2.005-3.097 3.9 0 1.208 0.538 2.294 1.388 3.028l-2.977 8.291h-3.022v1.8h2.619l-2.619 7.464 0.277 2.583 1.869-1.85 2.869-8.197h7.185l2.87 8.197 1.868 1.85 0.277-2.583-2.619-7.464h2.619v-1.8zM20.57 5.768c1.076 0 1.951 0.875 1.951 1.95s-0.876 1.95-1.951 1.95c-1.075 0-1.95-0.875-1.95-1.95s0.876-1.95 1.95-1.95zM17.374 19.038l2.657-7.352c0.177 0.025 0.356 0.037 0.54 0.037 0.178 0 0.354-0.012 0.527-0.035l2.656 7.35h-6.379z" fill="#000000"></path>
</svg>
