<?xml version="1.0" encoding="utf-8"?>
<!-- Generator: Adobe Illustrator 16.0.3, SVG Export Plug-In . SVG Version: 6.00 Build 0)  -->
<!DOCTYPE svg PUBLIC "-//W3C//DTD SVG 1.1//EN" "http://www.w3.org/Graphics/SVG/1.1/DTD/svg11.dtd">
<svg version="1.1" id="Layer_1" xmlns="http://www.w3.org/2000/svg" xmlns:xlink="http://www.w3.org/1999/xlink" x="0px" y="0px"
	 width="500px" height="400px" viewBox="0 0 500 400" enable-background="new 0 0 500 400" xml:space="preserve">
<g>
	<line fill="none" stroke="#449FDB" x1="-177.477" y1="-177.473" x2="-177.477" y2="-177.473"/>
</g>
<path fill="#1C3F94" d="M246.939,314.846h-1.052c-16.036-0.475-27.358-12.305-26.907-28.128c0.45-15.521,12.035-26.825,27.56-26.825
	l0.951,0.025c16.477,0.486,27.684,12.204,27.194,28.479C274.245,303.943,262.816,314.846,246.939,314.846z"/>
<path fill="#1C3F94" d="M314.43,180.88c-3.806,5.356-12.08,12.029-22.533,20.166l-11.528,7.961
	c-6.322,4.919-10.128,9.539-11.554,14.071c-1.153,3.615-1.68,4.545-1.777,11.814l-0.025,1.879h-43.958l0.132-3.73
	c0.538-15.309,0.92-24.283,7.254-31.729c9.946-11.666,31.889-25.804,32.814-26.393c3.133-2.384,5.786-5.063,7.764-7.936
	c4.607-6.353,6.647-11.379,6.647-16.272c0-6.835-2.028-13.157-6.022-18.771c-3.854-5.433-11.19-8.181-21.769-8.181
	c-10.503,0-17.682,3.348-21.987,10.183c-4.443,7.036-6.667,14.392-6.667,21.945v1.884H175.9l0.074-1.979
	c1.164-27.765,11.071-47.743,29.453-59.41c11.525-7.448,25.882-11.203,42.626-11.203c21.913,0,40.462,5.333,55.034,15.828
	c14.746,10.64,22.233,26.602,22.233,47.404c0,11.649-3.668,22.583-10.918,32.512v-0.044H314.43z"/>
<g>
	<path fill="#1C3F94" d="M250,389.99C145.239,389.99,60.01,304.76,60.01,200c0-104.761,85.229-189.99,189.99-189.99
		c104.761,0,189.99,85.229,189.99,189.99C439.99,304.76,354.761,389.99,250,389.99z M250,38.797
		c-88.888,0-161.203,72.314-161.203,161.202c0,88.887,72.315,161.202,161.203,161.202c88.887,0,161.202-72.314,161.202-161.202
		C411.202,111.112,338.887,38.797,250,38.797z"/>
</g>
</svg>
