<?xml version="1.0" encoding="utf-8"?>
<!-- Generated by IcoMoon.io -->
<!DOCTYPE svg PUBLIC "-//W3C//DTD SVG 1.1//EN" "http://www.w3.org/Graphics/SVG/1.1/DTD/svg11.dtd">
<svg version="1.1" xmlns="http://www.w3.org/2000/svg" xmlns:xlink="http://www.w3.org/1999/xlink" width="32" height="32" viewBox="0 0 32 32">
<g>
</g>
	<path d="M26.998 14.786c-0.683-5.082-4.779-9.178-9.861-9.785v-4.020h-2.958v4.020c-5.082 0.607-9.178 4.703-9.785 9.785h-3.262v2.958h3.262c0.607 5.082 4.703 9.178 9.785 9.861v3.413h2.958v-3.413c5.082-0.683 9.178-4.779 9.861-9.861h3.868v-2.958zM22.751 17.745h2.2c-0.683 4.020-3.793 7.13-7.813 7.813v-2.579l-1.441-1.593-1.517 1.593v2.579c-3.944-0.683-7.13-3.793-7.737-7.813h2.807l1.517-1.441-1.517-1.517h-2.806c0.607-3.944 3.793-7.13 7.737-7.737v1.972l1.517 1.593 1.441-1.593v-1.972c4.020 0.607 7.13 3.793 7.813 7.737h-2.2l-1.517 1.517z" fill="#000000"></path>
</svg>
