<?xml version="1.0" encoding="utf-8"?>
<!-- Generated by IcoMoon.io -->
<!DOCTYPE svg PUBLIC "-//W3C//DTD SVG 1.1//EN" "http://www.w3.org/Graphics/SVG/1.1/DTD/svg11.dtd">
<svg version="1.1" xmlns="http://www.w3.org/2000/svg" xmlns:xlink="http://www.w3.org/1999/xlink" width="32" height="32" viewBox="0 0 32 32">
<g>
</g>
	<path d="M30.108 5.684l-2.958 2.958-1.896 1.82c-0.986 0.076-1.972-0.303-2.731-0.986-0.683-0.758-1.062-1.745-0.986-2.731l4.779-4.854c0.076-0.076 0.076-0.228 0-0.303 0-0.076 0-0.076-0.076-0.076v0c0 0 0 0 0 0s0 0 0 0c-1.062-0.455-2.2-0.758-3.413-0.758-4.627 0-8.42 3.793-8.42 8.42 0 0.91 0.152 1.745 0.455 2.503l-8.799 8.799c-2.958 0.076-5.31 2.427-5.31 5.386s2.427 5.386 5.386 5.386c2.958 0 5.31-2.351 5.386-5.31l8.799-8.799c0.759 0.303 1.593 0.455 2.503 0.455 4.627 0 8.42-3.793 8.42-8.42 0-1.214-0.303-2.351-0.759-3.413 0 0 0 0 0 0 0 0 0-0.076 0-0.076v0c0 0-0.076 0-0.076 0-0.076-0.076-0.228-0.076-0.303 0zM8.415 25.861c0 1.214-1.062 2.2-2.276 2.2s-2.2-0.986-2.2-2.2c0-1.214 0.986-2.276 2.2-2.276 1.214 0 2.276 1.062 2.276 2.276z" fill="#000000"></path>
</svg>
