<?xml version="1.0" encoding="utf-8"?>
<!-- Generated by IcoMoon.io -->
<!DOCTYPE svg PUBLIC "-//W3C//DTD SVG 1.1//EN" "http://www.w3.org/Graphics/SVG/1.1/DTD/svg11.dtd">
<svg version="1.1" xmlns="http://www.w3.org/2000/svg" xmlns:xlink="http://www.w3.org/1999/xlink" width="32" height="32" viewBox="0 0 32 32">
<g>
</g>
	<path d="M4.608 30.45c0-0.345 0.173-0.604 0.432-0.863l3.366-3.797c-1.036-0.345-1.899-0.949-2.589-1.812-0.604-0.949-0.949-1.985-0.949-3.107v-11.478c0-1.381 0.432-2.589 1.467-3.538 0.949-1.036 2.158-1.553 3.538-1.553h12.082c1.381 0 2.503 0.518 3.538 1.553 0.949 0.949 1.467 2.158 1.467 3.538v11.478c0 1.122-0.345 2.071-0.949 3.021-0.604 0.863-1.467 1.467-2.416 1.812l3.452 3.884c0.173 0.259 0.345 0.518 0.345 0.863 0 0.259-0.173 0.518-0.345 0.69-0.259 0.259-0.518 0.345-0.777 0.345-0.259 0-0.518-0.086-0.777-0.259l-4.66-5.264h-9.666l-4.66 5.264c-0.259 0.173-0.518 0.259-0.777 0.259s-0.518-0.086-0.777-0.345c-0.173-0.173-0.345-0.432-0.345-0.69zM7.888 11.982h6.732v-4.574h-4.747c-0.518 0-1.036 0.173-1.381 0.604-0.345 0.345-0.604 0.863-0.604 1.381zM9.355 19.663c0 0.345 0.173 0.777 0.518 1.122s0.777 0.604 1.208 0.604c0.345 0 0.777-0.259 1.122-0.604 0.432-0.345 0.604-0.777 0.604-1.122 0-0.432-0.173-0.863-0.604-1.208-0.345-0.345-0.777-0.518-1.122-0.518-0.432 0-0.863 0.173-1.208 0.518-0.345 0.345-0.518 0.777-0.518 1.208zM9.7 28.552c0-0.173 0.086-0.345 0.173-0.518 0.173-0.086 0.345-0.173 0.518-0.173h10.788c0.173 0 0.345 0.086 0.518 0.173 0.086 0.173 0.173 0.345 0.173 0.518 0 0.173-0.086 0.259-0.173 0.432-0.173 0.086-0.345 0.173-0.518 0.173h-10.788c-0.173 0-0.345-0.086-0.518-0.173-0.086-0.173-0.173-0.259-0.173-0.432zM12.634 1.971c0-0.432 0.173-0.777 0.518-1.122 0.345-0.432 0.777-0.604 1.208-0.604 0.345 0 0.777 0.173 1.122 0.604 0.345 0.345 0.518 0.69 0.518 1.122 0 0.345-0.173 0.777-0.518 1.122-0.345 0.432-0.777 0.604-1.122 0.604-0.432 0-0.863-0.173-1.208-0.604-0.345-0.345-0.518-0.777-0.518-1.122zM16.777 2.057c0-0.432 0.173-0.777 0.518-1.208 0.345-0.345 0.69-0.604 1.122-0.604 0.432 0 0.777 0.173 1.208 0.604 0.345 0.345 0.518 0.69 0.518 1.122 0 0.345-0.173 0.777-0.518 1.122-0.432 0.432-0.777 0.604-1.208 0.604-0.432 0-0.777-0.173-1.122-0.518-0.345-0.345-0.518-0.69-0.518-1.122zM17.726 11.982h6.128v-2.589c0-0.518-0.173-1.036-0.604-1.381-0.345-0.432-0.777-0.604-1.295-0.604h-4.229zM19.193 19.663c0 0.345 0.173 0.777 0.518 1.122s0.777 0.604 1.122 0.604c0.432 0 0.863-0.259 1.208-0.604 0.345-0.345 0.518-0.777 0.518-1.122 0-0.432-0.173-0.863-0.518-1.208-0.345-0.345-0.777-0.518-1.208-0.518-0.345 0-0.777 0.173-1.122 0.518-0.345 0.345-0.518 0.777-0.518 1.208z" fill="#000000"></path>
</svg>
