<?xml version="1.0" encoding="utf-8"?>
<!-- Generated by IcoMoon.io -->
<!DOCTYPE svg PUBLIC "-//W3C//DTD SVG 1.1//EN" "http://www.w3.org/Graphics/SVG/1.1/DTD/svg11.dtd">
<svg version="1.1" xmlns="http://www.w3.org/2000/svg" xmlns:xlink="http://www.w3.org/1999/xlink" width="32" height="32" viewBox="0 0 32 32">
<g>
</g>
	<path d="M31.289 27.169v0l-2.631-4.622h0.996c0.213 0 0.427-0.213 0.427-0.427 0-0.071 0-0.071-0.071-0.142v0l-2.418-4.267h0.569c0.142 0 0.284-0.142 0.284-0.284 0-0.071 0-0.071 0-0.142v0l-3.627-6.187c-0.071-0.142-0.213-0.284-0.427-0.284-0.142 0-0.356 0.142-0.427 0.284v0l-3.556 6.187c0 0.071 0 0.071 0 0.142 0 0.142 0.071 0.284 0.284 0.284v0h0.569l-2.418 4.267c-0.071 0.071-0.071 0.071-0.071 0.142 0 0.213 0.142 0.427 0.356 0.427v0h1.067l-0.782 1.351-3.058-5.333h1.493c0.284 0 0.569-0.213 0.569-0.569 0-0.071 0-0.142-0.071-0.213v-0.071l-3.484-5.973h0.853c0.213 0 0.427-0.142 0.427-0.356 0-0.071 0-0.142-0.071-0.213v0l-5.049-8.747c-0.071-0.213-0.284-0.356-0.569-0.356s-0.498 0.142-0.64 0.356l-5.049 8.747c0 0.071 0 0.142 0 0.213 0 0.213 0.142 0.356 0.356 0.356v0h0.853l-3.413 5.902c-0.071 0.142-0.142 0.213-0.142 0.356 0 0.356 0.284 0.569 0.569 0.569v0h1.493l-3.698 6.4c-0.071 0.142-0.142 0.284-0.142 0.427 0 0.356 0.356 0.64 0.711 0.64v0h7.182v3.129c0 0.284 0.284 0.498 0.569 0.498h2.631c0.356 0 0.569-0.213 0.569-0.498v-3.129h5.902l-0.64 1.138c-0.071 0.071-0.071 0.142-0.071 0.213 0 0.284 0.213 0.498 0.498 0.498v0h5.12v1.422c0 0.213 0.142 0.356 0.356 0.356h1.92c0.213 0 0.356-0.142 0.356-0.356v-1.422h5.12c0.284 0 0.498-0.213 0.498-0.498 0-0.071-0.071-0.142-0.071-0.213z" fill="#000000"></path>
</svg>
