<?xml version="1.0" encoding="utf-8"?>
<!-- Generated by IcoMoon.io -->
<!DOCTYPE svg PUBLIC "-//W3C//DTD SVG 1.1//EN" "http://www.w3.org/Graphics/SVG/1.1/DTD/svg11.dtd">
<svg version="1.1" xmlns="http://www.w3.org/2000/svg" xmlns:xlink="http://www.w3.org/1999/xlink" width="32" height="32" viewBox="0 0 32 32">
<g>
</g>
	<path d="M7.654 18.687c0 0 0.098-0.196 0.196-0.589l2.357-7.757c0.196-0.491 0.393-0.786 0.786-0.982l3.142-1.669c0.196-0.098 0.491-0.098 0.884-0.098 1.669 0 2.553 0.589 2.553 1.768v0.196l-0.786 5.99 5.204 4.615c0.295 0.196 0.491 0.589 0.589 0.982l1.571 6.873c0 0.098 0 0.196 0 0.393 0 0.491-0.098 0.786-0.491 1.080-0.295 0.295-0.687 0.393-1.080 0.393-0.786 0-1.276-0.393-1.473-1.178l-1.768-6.284-5.499-4.713c-0.393-0.393-0.589-0.786-0.589-1.276v-0.098l0.589-4.811c-0.098 0-0.295 0-0.491 0.098-0.295 0.098-0.393 0.196-0.491 0.196l-2.553 6.481c-0.196 1.080-0.687 1.571-1.277 1.571-0.393 0-0.786-0.098-0.982-0.295-0.295-0.295-0.393-0.589-0.393-0.884zM8.145 28.507c0-0.295 0-0.589 0.196-0.687l2.16-4.124 1.080-3.142c0.196-0.393 0.393-0.687 0.687-0.884s0.589-0.295 0.982-0.295c0.491 0 0.884 0.098 1.277 0.491 0.295 0.295 0.491 0.786 0.491 1.276 0 0.098 0 0.196-0.098 0.491l-1.178 3.339c0 0.098 0 0.098 0 0.196-0.098 0.098-0.098 0.196-0.098 0.295l-2.848 3.83c-0.295 0.491-0.687 0.687-1.277 0.687-0.393 0-0.786-0.098-0.982-0.393-0.295-0.295-0.393-0.687-0.393-1.080zM15.313 4.253c0-0.786 0.196-1.375 0.786-1.866 0.491-0.491 1.178-0.786 1.866-0.786 0.786 0 1.473 0.295 1.964 0.786 0.491 0.491 0.687 1.080 0.687 1.866 0 0.687-0.295 1.375-0.786 1.866-0.589 0.589-1.178 0.884-1.866 0.884-0.786 0-1.375-0.295-1.866-0.884-0.589-0.589-0.786-1.178-0.786-1.866zM18.16 12.698c0-0.393 0.196-0.786 0.589-1.178 0.295-0.295 0.687-0.491 1.080-0.491 0.491 0 0.786 0.196 1.178 0.589l2.848 3.044c0.295 0.295 0.491 0.589 0.491 0.982s-0.196 0.687-0.491 0.982c-0.295 0.295-0.589 0.491-0.982 0.491-0.393 0-0.687-0.196-0.982-0.491l-3.339-2.946c-0.196-0.295-0.393-0.687-0.393-0.982z" fill="#000000"></path>
</svg>
