<?xml version="1.0" encoding="utf-8"?>
<!-- Generated by IcoMoon.io -->
<!DOCTYPE svg PUBLIC "-//W3C//DTD SVG 1.1//EN" "http://www.w3.org/Graphics/SVG/1.1/DTD/svg11.dtd">
<svg version="1.1" xmlns="http://www.w3.org/2000/svg" xmlns:xlink="http://www.w3.org/1999/xlink" width="32" height="32" viewBox="0 0 32 32">
<g>
</g>
	<path d="M28.172 8.5h-21.845c-1.692 0-2.393-0.791-2.665-1.265l23.587-2.485v-0.922c0-1.561-1.267-2.828-2.828-2.828l-20.594 3.83c-1.716 0.31-2.828 1.266-2.828 2.827v20.515c0 1.561 1.267 2.828 2.828 2.828h24.346c1.559 0 2.826-1.267 2.826-2.828v-16.845c-0-1.561-1.267-2.828-2.828-2.828zM26 22.25c-1.381 0-2.5-1.119-2.5-2.5s1.119-2.5 2.5-2.5c1.381 0 2.5 1.119 2.5 2.5s-1.119 2.5-2.5 2.5z" fill="#000000"></path>
</svg>
