<?xml version="1.0" encoding="utf-8"?>
<!-- Generator: Adobe Illustrator 14.0.0, SVG Export Plug-In . SVG Version: 6.00 Build 43363)  -->
<!DOCTYPE svg PUBLIC "-//W3C//DTD SVG 1.1//EN" "http://www.w3.org/Graphics/SVG/1.1/DTD/svg11.dtd">
<svg version="1.1" id="Layer_1" xmlns="http://www.w3.org/2000/svg" xmlns:xlink="http://www.w3.org/1999/xlink" x="0px" y="0px"
	 width="176px" height="34px" viewBox="0 0 176 34" enable-background="new 0 0 176 34" xml:space="preserve">
<g>
	<g>
		<path fill="#FFFFFF" d="M3.635,18.449c0,0,2.897,2.646,6.116,2.646c1.29,0,2.684-0.5,2.684-2.039
			c0-3.04-11.517-2.934-11.517-10.801c0-4.723,3.97-7.834,9.048-7.834c5.509,0,8.229,2.897,8.229,2.897l-2.648,5.114
			c0,0-2.575-2.253-5.652-2.253c-1.287,0-2.718,0.573-2.718,2.003c0,3.219,11.518,2.646,11.518,10.73
			c0,4.256-3.254,7.939-9.014,7.939c-6.008,0-9.334-3.648-9.334-3.648L3.635,18.449z"/>
		<path fill="#FFFFFF" d="M29.196,7.574c5.437,0,8.511,3.791,8.511,8.906c0,0.609-0.143,1.933-0.143,1.933H25.94
			c0.466,2.252,2.325,3.292,4.292,3.292c2.647,0,5.079-1.861,5.079-1.861l2.29,4.327c0,0-2.969,2.682-7.869,2.682
			c-6.582,0-10.123-4.757-10.123-9.656C19.609,11.795,23.258,7.574,29.196,7.574 M31.485,14.871c0-1.395-0.966-2.647-2.433-2.647
			c-1.788,0-2.646,1.289-2.968,2.647H31.485z"/>
		<path fill="#FFFFFF" d="M47.28,7.575c3.719,0,5.257,1.967,5.257,1.967h0.072c0,0-0.072-0.393-0.072-1.001V8.004h5.794v25.575
			h-6.188v-7.226c0-0.929,0.071-1.571,0.071-1.571h-0.071c0,0-1.609,2.071-4.971,2.071c-5.008,0-8.299-3.935-8.299-9.657
			C38.873,11.366,42.379,7.575,47.28,7.575 M48.711,21.738c1.859,0,3.612-1.358,3.612-4.542c0-2.217-1.18-4.399-3.612-4.399
			c-1.932,0-3.613,1.574-3.613,4.399C45.098,19.95,46.564,21.738,48.711,21.738"/>
		<path fill="#FFFFFF" d="M60.586,8.004h6.186v10.803c0,1.716,0.681,2.432,1.97,2.432c2.646,0,3.896-2.325,3.896-5.079V8.004h6.188
			v18.42h-5.938v-1.61c0-0.606,0.072-1.143,0.072-1.143h-0.072c-1,1.968-3.29,3.182-5.758,3.182c-3.647,0-6.543-1.717-6.543-6.902
			V8.004L60.586,8.004z"/>
		<path fill="#FFFFFF" d="M89.825,7.574c5.437,0,8.513,3.791,8.513,8.906c0,0.609-0.143,1.933-0.143,1.933H86.571
			c0.464,2.252,2.327,3.292,4.292,3.292c2.646,0,5.078-1.861,5.078-1.861l2.289,4.327c0,0-2.968,2.682-7.869,2.682
			c-6.58,0-10.122-4.757-10.122-9.656C80.239,11.795,83.888,7.574,89.825,7.574 M92.114,14.871c0-1.395-0.966-2.647-2.434-2.647
			c-1.787,0-2.646,1.289-2.967,2.647H92.114z"/>
		<path fill="#FFFFFF" d="M99.962,8.004h5.938v1.609c0,0.609-0.072,1.145-0.072,1.145h0.072c0.858-1.43,2.61-3.183,5.866-3.183
			c3.721,0,6.616,1.717,6.616,6.903v11.945h-6.188V15.623c0-1.718-0.679-2.433-2.039-2.433c-1.932,0-3.112,1.073-3.647,2.647
			c-0.252,0.715-0.359,1.536-0.359,2.432v8.154h-6.187V8.004z"/>
		<path fill="#FFFFFF" d="M130.041,7.574c5.009,0,7.333,2.791,7.333,2.791l-2.611,4.148c0,0-1.789-1.788-4.328-1.788
			c-2.932,0-4.398,2.217-4.398,4.398c0,2.183,1.501,4.58,4.614,4.58c2.575,0,5.043-2.218,5.043-2.218l2.253,4.328
			c0,0-2.754,3.039-7.904,3.039c-6.581,0-10.265-4.577-10.265-9.657C119.777,12.261,123.424,7.574,130.041,7.574"/>
	</g>
	<g>
		<path fill="#FFFFFF" d="M147.14,7.574c5.439,0,8.515,3.791,8.515,8.906c0,0.609-0.142,1.933-0.142,1.933h-11.624
			c0.463,2.252,2.324,3.292,4.291,3.292c2.646,0,5.078-1.861,5.078-1.861l2.289,4.327c0,0-2.968,2.682-7.866,2.682
			c-6.584,0-10.124-4.757-10.124-9.656C137.558,11.795,141.205,7.574,147.14,7.574 M149.432,14.871c0-1.395-0.967-2.647-2.431-2.647
			c-1.791,0-2.649,1.289-2.971,2.647H149.432z"/>
		<path fill="#FFFFFF" d="M157.985,19.945c0,0,11.899,0.778,15.813-4.812c1.239-1.629,1.94-3.684,1.849-5.889
			c-0.206-5.032-4.453-8.947-9.487-8.742c-4.698,0.192-8.419,3.904-8.729,8.489c-0.112,2.064,0.578,4.342,1.092,6.298
			C158.941,16.63,159.393,18.905,157.985,19.945"/>
	</g>
</g>
</svg>
